<?xml version="1.0" encoding="UTF-8"?>
<!DOCTYPE svg PUBLIC "-//W3C//DTD SVG 1.1//EN" "http://www.w3.org/Graphics/SVG/1.1/DTD/svg11.dtd">
<svg xmlns="http://www.w3.org/2000/svg" version="1.1" width="512px" height="512px" style="shape-rendering:geometricPrecision; text-rendering:geometricPrecision; image-rendering:optimizeQuality; fill-rule:evenodd; clip-rule:evenodd" xmlns:xlink="http://www.w3.org/1999/xlink">
<g><path style="opacity:0.993" fill="#d144ca" d="M 167.5,77.5 C 153.5,90.8333 139.833,104.5 126.5,118.5C 93.3934,125.273 73.7267,145.273 67.5,178.5C 66.7611,178.369 66.0944,178.536 65.5,179C 46.6319,198.035 27.6319,216.868 8.5,235.5C 11.9182,217.165 16.2515,199.165 21.5,181.5C 57.1396,146.527 92.8063,110.86 128.5,74.5C 141.805,72.9448 154.805,73.9448 167.5,77.5 Z"/></g>
<g><path style="opacity:0.986" fill="#b25ad3" d="M 388.5,75.5 C 373.535,90.9652 358.368,106.299 343,121.5C 342.536,122.094 342.369,122.761 342.5,123.5C 336.063,126.22 330.063,129.72 324.5,134C 322.043,135.562 319.376,136.562 316.5,137C 305.839,137.5 295.172,137.667 284.5,137.5C 283.391,136.71 282.058,136.21 280.5,136C 299.368,117.299 318.035,98.4653 336.5,79.5C 353.521,73.6818 370.854,72.3484 388.5,75.5 Z"/></g>
<g><path style="opacity:0.987" fill="#d640c8" d="M 128.5,74.5 C 92.8063,110.86 57.1396,146.527 21.5,181.5C 25.1815,163.44 31.0149,146.106 39,129.5C 59.816,96.8266 89.6494,78.4933 128.5,74.5 Z"/></g>
<g><path style="opacity:0.987" fill="#ab5ed5" d="M 388.5,75.5 C 399.824,76.5013 410.49,79.5013 420.5,84.5C 409.5,95.8333 398.5,107.167 387.5,118.5C 371.977,116.015 356.977,117.682 342.5,123.5C 342.369,122.761 342.536,122.094 343,121.5C 358.368,106.299 373.535,90.9652 388.5,75.5 Z"/></g>
<g><path style="opacity:0.983" fill="#cb48cc" d="M 167.5,77.5 C 177.163,79.2739 186.163,82.6072 194.5,87.5C 184.554,99.1141 173.887,110.114 162.5,120.5C 150.62,117.559 138.62,116.892 126.5,118.5C 139.833,104.5 153.5,90.8333 167.5,77.5 Z"/></g>
<g><path style="opacity:0.971" fill="#b856d1" d="M 336.5,79.5 C 318.035,98.4653 299.368,117.299 280.5,136C 282.058,136.21 283.391,136.71 284.5,137.5C 269.167,137.5 253.833,137.5 238.5,137.5C 252.833,122.833 267.167,108.167 281.5,93.5C 289.84,93.6664 298.173,93.4997 306.5,93C 315.642,86.5958 325.642,82.0958 336.5,79.5 Z"/></g>
<g><path style="opacity:0.987" fill="#a562d6" d="M 420.5,84.5 C 430.689,88.4197 439.689,94.0864 447.5,101.5C 436.553,110.779 426.22,120.779 416.5,131.5C 407.407,125.785 397.74,121.452 387.5,118.5C 398.5,107.167 409.5,95.8333 420.5,84.5 Z"/></g>
<g><path style="opacity:0.991" fill="#c54ccd" d="M 194.5,87.5 C 198.3,89.2336 201.966,91.2336 205.5,93.5C 212.989,94.329 220.656,94.829 228.5,95C 214.911,108.086 201.911,121.586 189.5,135.5C 180.885,129.695 171.885,124.695 162.5,120.5C 173.887,110.114 184.554,99.1141 194.5,87.5 Z"/></g>
<g><path style="opacity:0.956" fill="#bf50cf" d="M 205.5,93.5 C 230.833,93.5 256.167,93.5 281.5,93.5C 267.167,108.167 252.833,122.833 238.5,137.5C 223.83,137.667 209.163,137.5 194.5,137C 192.753,136.648 191.086,136.148 189.5,135.5C 201.911,121.586 214.911,108.086 228.5,95C 220.656,94.829 212.989,94.329 205.5,93.5 Z"/></g>
<g><path style="opacity:0.987" fill="#9f67d8" d="M 447.5,101.5 C 455.449,107.086 461.783,114.086 466.5,122.5C 456.368,132.131 446.368,141.964 436.5,152C 435.906,152.464 435.239,152.631 434.5,152.5C 429.664,144.488 423.664,137.488 416.5,131.5C 426.22,120.779 436.553,110.779 447.5,101.5 Z"/></g>
<g><path style="opacity:0.989" fill="#9a6bd9" d="M 466.5,122.5 C 471.705,128.238 475.372,134.904 477.5,142.5C 466.5,154.167 455.167,165.5 443.5,176.5C 441.12,168.347 438.12,160.347 434.5,152.5C 435.239,152.631 435.906,152.464 436.5,152C 446.368,141.964 456.368,132.131 466.5,122.5 Z"/></g>
<g><path style="opacity:0.991" fill="#c54dcd" d="M 165.5,156.5 C 142.419,181.082 118.753,205.249 94.5,229C 93.9056,229.464 93.2389,229.631 92.5,229.5C 84.6148,222.788 82.4481,214.455 86,204.5C 88.5903,198.242 93.0903,194.075 99.5,192C 108.827,191.5 118.161,191.334 127.5,191.5C 127.334,182.161 127.5,172.827 128,163.5C 133.827,150.506 143.66,146.006 157.5,150C 160.936,151.274 163.603,153.441 165.5,156.5 Z"/></g>
<g><path style="opacity:0.989" fill="#a463d7" d="M 356.5,148.5 C 376.191,147.688 385.024,157.022 383,176.5C 378.082,189.045 368.915,193.879 355.5,191C 343.794,186.098 338.961,177.265 341,164.5C 343.685,156.65 348.852,151.316 356.5,148.5 Z"/></g>
<g><path style="opacity:0.987" fill="#936fdb" d="M 477.5,142.5 C 483.344,157.71 488.011,173.376 491.5,189.5C 490.778,189.082 490.278,188.416 490,187.5C 478.298,199.035 466.798,210.702 455.5,222.5C 451.211,207.349 447.211,192.016 443.5,176.5C 455.167,165.5 466.5,154.167 477.5,142.5 Z"/></g>
<g><path style="opacity:0.993" fill="#bf50cf" d="M 165.5,156.5 C 167.746,158.649 169.246,161.316 170,164.5C 170.5,173.494 170.666,182.494 170.5,191.5C 174.833,191.5 179.167,191.5 183.5,191.5C 165.167,210.5 146.5,229.167 127.5,247.5C 127.5,243.167 127.5,238.833 127.5,234.5C 118.494,234.666 109.494,234.5 100.5,234C 97.3156,233.246 94.6489,231.746 92.5,229.5C 93.2389,229.631 93.9056,229.464 94.5,229C 118.753,205.249 142.419,181.082 165.5,156.5 Z"/></g>
<g><path style="opacity:0.985" fill="#cb48cc" d="M 67.5,178.5 C 62.5392,195.676 58.2059,213.01 54.5,230.5C 53.7611,230.369 53.0944,230.536 52.5,231C 35.6319,248.035 18.6319,264.868 1.5,281.5C 2.71941,265.962 5.05275,250.629 8.5,235.5C 27.6319,216.868 46.6319,198.035 65.5,179C 66.0944,178.536 66.7611,178.369 67.5,178.5 Z"/></g>
<g><path style="opacity:0.987" fill="#8c74dd" d="M 491.5,189.5 C 494.435,198.573 496.768,207.907 498.5,217.5C 486.702,228.798 475.035,240.298 463.5,252C 462.906,252.464 462.239,252.631 461.5,252.5C 459.373,242.53 457.373,232.53 455.5,222.5C 466.798,210.702 478.298,199.035 490,187.5C 490.278,188.416 490.778,189.082 491.5,189.5 Z"/></g>
<g><path style="opacity:0.992" fill="#b756d1" d="M 183.5,191.5 C 200.591,188.692 210.591,195.692 213.5,212.5C 213.064,221.884 208.731,228.717 200.5,233C 190.58,234.423 180.58,234.923 170.5,234.5C 170.923,244.58 170.423,254.58 169,264.5C 163.658,274.088 155.491,278.255 144.5,277C 130.496,272.176 124.829,262.343 127.5,247.5C 146.5,229.167 165.167,210.5 183.5,191.5 Z"/></g>
<g><path style="opacity:0.985" fill="#a464d7" d="M 312.5,191.5 C 329.486,189.002 339.152,196.169 341.5,213C 340.209,226.459 332.876,233.625 319.5,234.5C 305.89,233.557 298.556,226.223 297.5,212.5C 298.268,202.409 303.268,195.409 312.5,191.5 Z"/></g>
<g><path style="opacity:0.988" fill="#976cda" d="M 398.5,191.5 C 418.103,189.937 427.27,198.937 426,218.5C 419.203,234.101 408.036,238.268 392.5,231C 386.319,226.642 382.986,220.642 382.5,213C 383.128,202.22 388.462,195.053 398.5,191.5 Z"/></g>
<g><path style="opacity:0.987" fill="#8678df" d="M 498.5,217.5 C 501.836,229.185 504.17,241.185 505.5,253.5C 493.553,267.115 480.886,280.115 467.5,292.5C 465.724,279.171 463.724,265.837 461.5,252.5C 462.239,252.631 462.906,252.464 463.5,252C 475.035,240.298 486.702,228.798 498.5,217.5 Z"/></g>
<g><path style="opacity:0.991" fill="#c54ccd" d="M 54.5,230.5 C 50.4784,246.277 47.4784,262.277 45.5,278.5C 30.1667,293.5 14.8333,308.5 -0.5,323.5C -0.5,313.167 -0.5,302.833 -0.5,292.5C 0.166667,288.833 0.833333,285.167 1.5,281.5C 18.6319,264.868 35.6319,248.035 52.5,231C 53.0944,230.536 53.7611,230.369 54.5,230.5 Z"/></g>
<g><path style="opacity:0.982" fill="#976dda" d="M 358.5,233.5 C 377.314,234.149 385.481,243.815 383,262.5C 375.076,277.473 363.576,280.973 348.5,273C 340.133,264.828 338.299,255.328 343,244.5C 346.746,238.72 351.913,235.054 358.5,233.5 Z"/></g>
<g><path style="opacity:0.987" fill="#7f7de1" d="M 505.5,253.5 C 508.073,266.419 510.073,279.419 511.5,292.5C 511.5,294.5 511.5,296.5 511.5,298.5C 510.761,298.369 510.094,298.536 509.5,299C 495.632,313.035 481.632,326.869 467.5,340.5C 468.754,324.503 468.754,308.503 467.5,292.5C 480.886,280.115 493.553,267.115 505.5,253.5 Z"/></g>
<g><path style="opacity:0.994" fill="#bf51cf" d="M 45.5,278.5 C 42.8088,296.779 42.1421,315.113 43.5,333.5C 30.1919,345.141 17.5252,357.474 5.5,370.5C 2.96167,360.146 0.961671,349.812 -0.5,339.5C -0.5,334.167 -0.5,328.833 -0.5,323.5C 14.8333,308.5 30.1667,293.5 45.5,278.5 Z"/></g>
<g><path style="opacity:0.981" fill="#a662d6" d="M 234.5,293.5 C 186.833,341.5 139.167,389.5 91.5,437.5C 84.7158,437.023 78.0491,436.023 71.5,434.5C 85.5,420.167 99.5,405.833 113.5,391.5C 142.297,379.549 164.464,359.882 180,332.5C 185.468,323.23 190.135,313.564 194,303.5C 197.266,299.245 201.432,296.078 206.5,294C 215.827,293.5 225.161,293.334 234.5,293.5 Z"/></g>
<g><path style="opacity:0.996" fill="#a364d7" d="M 234.5,293.5 C 242.833,293.5 251.167,293.5 259.5,293.5C 257.369,294.314 255.036,294.814 252.5,295C 205.632,341.701 158.965,388.535 112.5,435.5C 105.564,436.627 98.5636,437.294 91.5,437.5C 139.167,389.5 186.833,341.5 234.5,293.5 Z"/></g>
<g><path style="opacity:0.987" fill="#a067d8" d="M 259.5,293.5 C 271.167,293.5 282.833,293.5 294.5,293.5C 280.5,307.833 266.5,322.167 252.5,336.5C 244.16,336.334 235.827,336.5 227.5,337C 211.645,370.181 188.645,397.181 158.5,418C 144.323,426.892 128.989,432.725 112.5,435.5C 158.965,388.535 205.632,341.701 252.5,295C 255.036,294.814 257.369,294.314 259.5,293.5 Z"/></g>
<g><path style="opacity:0.991" fill="#996bd9" d="M 294.5,293.5 C 304.839,293.334 315.172,293.5 325.5,294C 326.737,294.232 327.737,294.732 328.5,295.5C 327.127,295.343 325.793,295.51 324.5,296C 310.965,309.368 297.631,322.868 284.5,336.5C 273.833,336.5 263.167,336.5 252.5,336.5C 266.5,322.167 280.5,307.833 294.5,293.5 Z"/></g>
<g><path style="opacity:0.987" fill="#7982e2" d="M 511.5,298.5 C 511.5,312.167 511.5,325.833 511.5,339.5C 511.167,339.5 510.833,339.5 510.5,339.5C 478.035,371.465 445.701,403.632 413.5,436C 414.737,436.232 415.737,436.732 416.5,437.5C 404.132,437.363 392.465,434.696 381.5,429.5C 381.389,428.883 381.056,428.383 380.5,428C 392.09,416.914 403.09,405.414 413.5,393.5C 434.913,395.051 450.413,386.385 460,367.5C 463.306,358.598 465.806,349.598 467.5,340.5C 481.632,326.869 495.632,313.035 509.5,299C 510.094,298.536 510.761,298.369 511.5,298.5 Z"/></g>
<g><path style="opacity:0.989" fill="#956edb" d="M 328.5,295.5 C 331.989,296.477 334.823,298.477 337,301.5C 339.397,305.624 341.231,309.957 342.5,314.5C 331.868,324.631 321.368,334.965 311,345.5C 310.517,346.448 310.351,347.448 310.5,348.5C 308.672,344.681 306.672,340.847 304.5,337C 297.842,336.5 291.175,336.334 284.5,336.5C 297.631,322.868 310.965,309.368 324.5,296C 325.793,295.51 327.127,295.343 328.5,295.5 Z"/></g>
<g><path style="opacity:0.985" fill="#8e73dd" d="M 342.5,314.5 C 348.353,327.872 355.02,340.872 362.5,353.5C 351.86,363.806 341.193,374.139 330.5,384.5C 322.807,373.117 316.14,361.117 310.5,348.5C 310.351,347.448 310.517,346.448 311,345.5C 321.368,334.965 331.868,324.631 342.5,314.5 Z"/></g>
<g><path style="opacity:0.986" fill="#b855d1" d="M 43.5,333.5 C 44.0974,344.887 46.4307,355.887 50.5,366.5C 39.5,376.833 28.8333,387.5 18.5,398.5C 12.6428,389.954 8.30944,380.62 5.5,370.5C 17.5252,357.474 30.1919,345.141 43.5,333.5 Z"/></g>
<g><path style="opacity:0.986" fill="#7386e4" d="M 510.5,339.5 C 509.401,365.64 500.901,388.973 485,409.5C 466.181,428.282 443.348,437.615 416.5,437.5C 415.737,436.732 414.737,436.232 413.5,436C 445.701,403.632 478.035,371.465 510.5,339.5 Z"/></g>
<g><path style="opacity:0.988" fill="#8778df" d="M 362.5,353.5 C 368.376,362.386 375.043,370.719 382.5,378.5C 371.833,388.5 361.5,398.833 351.5,409.5C 343.401,402.07 336.401,393.737 330.5,384.5C 341.193,374.139 351.86,363.806 362.5,353.5 Z"/></g>
<g><path style="opacity:0.989" fill="#b15ad3" d="M 50.5,366.5 C 55.1386,376.804 62.4719,384.471 72.5,389.5C 72.6495,390.552 72.4828,391.552 72,392.5C 61.9645,402.368 52.1312,412.368 42.5,422.5C 32.1881,416.855 24.1881,408.855 18.5,398.5C 28.8333,387.5 39.5,376.833 50.5,366.5 Z"/></g>
<g><path style="opacity:0.985" fill="#7f7de1" d="M 382.5,378.5 C 391.091,386.961 401.424,391.961 413.5,393.5C 403.09,405.414 392.09,416.914 380.5,428C 381.056,428.383 381.389,428.883 381.5,429.5C 370.135,424.787 360.135,418.12 351.5,409.5C 361.5,398.833 371.833,388.5 382.5,378.5 Z"/></g>
<g><path style="opacity:0.983" fill="#ab5fd5" d="M 72.5,389.5 C 85.9238,394.042 99.5904,394.708 113.5,391.5C 99.5,405.833 85.5,420.167 71.5,434.5C 60.711,432.931 51.0443,428.931 42.5,422.5C 52.1312,412.368 61.9645,402.368 72,392.5C 72.4828,391.552 72.6495,390.552 72.5,389.5 Z"/></g>
</svg>
