<?xml version="1.0" encoding="UTF-8"?>
<!DOCTYPE svg PUBLIC "-//W3C//DTD SVG 1.1//EN" "http://www.w3.org/Graphics/SVG/1.1/DTD/svg11.dtd">
<svg xmlns="http://www.w3.org/2000/svg" version="1.1" width="100px" height="100px" style="shape-rendering:geometricPrecision; text-rendering:geometricPrecision; image-rendering:optimizeQuality; fill-rule:evenodd; clip-rule:evenodd" xmlns:xlink="http://www.w3.org/1999/xlink">
<g><path style="opacity:0.819" fill="#2a2723" d="M 7.5,7.5 C 15.1272,9.14715 21.7938,12.6471 27.5,18C 32.3782,23.2095 36.8782,28.7095 41,34.5C 46.6667,33.1667 52.3333,33.1667 58,34.5C 63.4537,25.3792 70.6204,17.8792 79.5,12C 83.2186,9.63609 87.2186,8.13609 91.5,7.5C 90.1867,22.1257 84.52,34.7923 74.5,45.5C 76.4122,52.6825 78.9122,59.6825 82,66.5C 82.8538,70.6251 82.5204,74.6251 81,78.5C 72.4983,87.5041 61.9983,91.5041 49.5,90.5C 37.0017,91.5041 26.5017,87.5041 18,78.5C 16.4796,74.6251 16.1462,70.6251 17,66.5C 20.0878,59.6825 22.5878,52.6825 24.5,45.5C 14.48,34.7923 8.81331,22.1257 7.5,7.5 Z"/></g>
<g><path style="opacity:1" fill="#563234" d="M 23.5,64.5 C 24.5,64.8333 25.1667,65.5 25.5,66.5C 25.5654,66.9382 25.3988,67.2716 25,67.5C 23.9614,66.7562 23.4614,65.7562 23.5,64.5 Z"/></g>
<g><path style="opacity:1" fill="#dd5a65" d="M 74.5,76.5 C 71.9484,74.1996 71.2817,71.533 72.5,68.5C 73.9319,66.6729 75.5986,65.0063 77.5,63.5C 80.6251,67.5728 81.1251,71.9061 79,76.5C 77.5861,77.4132 76.0861,77.4132 74.5,76.5 Z"/></g>
<g><path style="opacity:1" fill="#da5864" d="M 23.5,64.5 C 23.4614,65.7562 23.9614,66.7562 25,67.5C 25.3988,67.2716 25.5654,66.9382 25.5,66.5C 26.6291,68.6282 26.7958,70.9615 26,73.5C 25.6232,74.9423 24.7899,75.9423 23.5,76.5C 22.5041,76.4142 21.6708,76.7476 21,77.5C 18.0495,73.7747 17.7162,69.7747 20,65.5C 21.0113,64.6634 22.1779,64.33 23.5,64.5 Z"/></g>
<g><path style="opacity:1" fill="#f2df5b" d="M 79.5,15.5 C 80.3705,18.1123 81.0372,20.779 81.5,23.5C 81.3256,26.8738 80.8256,30.2072 80,33.5C 77.3609,37.6388 74.5276,41.6388 71.5,45.5C 74.3903,50.7057 76.3903,56.2057 77.5,62C 74.5066,63.1585 72.8399,65.3252 72.5,68.5C 71.2817,71.533 71.9484,74.1996 74.5,76.5C 75.0577,77.7899 76.0577,78.6232 77.5,79C 68.916,85.7764 59.0827,88.943 48,88.5C 37.851,88.8956 29.0177,85.7289 21.5,79C 22.3805,78.2917 23.0472,77.4584 23.5,76.5C 24.7899,75.9423 25.6232,74.9423 26,73.5C 26.7958,70.9615 26.6291,68.6282 25.5,66.5C 25.1667,65.5 24.5,64.8333 23.5,64.5C 23.0472,63.5416 22.3805,62.7083 21.5,62C 22.6095,56.169 24.6095,50.669 27.5,45.5C 25.1924,42.0252 22.6924,38.6919 20,35.5C 18.9914,33.9751 18.4914,32.3084 18.5,30.5C 18.3343,26.1539 18.501,21.8206 19,17.5C 19.6708,16.7476 20.5041,16.4142 21.5,16.5C 28.3912,21.894 34.0579,28.394 38.5,36C 44.9886,35.248 51.4886,35.4147 58,36.5C 58.8333,36.3333 59.6667,36.1667 60.5,36C 65.2857,27.7149 71.6191,20.8816 79.5,15.5 Z"/></g>
<g><path style="opacity:1" fill="#3d3d3b" d="M 60.5,55.5 C 69.8176,55.6546 71.8176,59.488 66.5,67C 57.0959,67.141 55.0959,63.3076 60.5,55.5 Z"/></g>
<g><path style="opacity:1" fill="#f0f0f0" d="M 62.5,58.5 C 65.8606,59.2032 66.1939,60.5365 63.5,62.5C 61.3576,61.5629 61.0243,60.2296 62.5,58.5 Z"/></g>
<g><path style="opacity:1" fill="#3d3d3b" d="M 32.5,55.5 C 41.8176,55.6546 43.8176,59.488 38.5,67C 29.0959,67.141 27.0959,63.3076 32.5,55.5 Z"/></g>
<g><path style="opacity:1" fill="#f0f0f0" d="M 34.5,58.5 C 37.8606,59.2032 38.1939,60.5365 35.5,62.5C 33.3576,61.5629 33.0243,60.2296 34.5,58.5 Z"/></g>
<g><path style="opacity:1" fill="#424140" d="M 81.5,23.5 C 81.0372,20.779 80.3705,18.1123 79.5,15.5C 81.7654,13.358 84.432,11.6913 87.5,10.5C 87.8019,16.7964 86.3019,22.7964 83,28.5C 82.8019,26.6183 82.3019,24.9516 81.5,23.5 Z"/></g>
<g><path style="opacity:1" fill="#45433f" d="M 21.5,16.5 C 20.5041,16.4142 19.6708,16.7476 19,17.5C 18.501,21.8206 18.3343,26.1539 18.5,30.5C 17.5041,30.5858 16.6708,30.2524 16,29.5C 13.8633,24.2562 12.03,18.9229 10.5,13.5C 10.8333,12.5 11.1667,11.5 11.5,10.5C 15.1352,12.1645 18.4685,14.1645 21.5,16.5 Z"/></g>
<g><path style="opacity:1" fill="#9a8f42" d="M 53.5,70.5 C 50.8333,69.1667 48.1667,69.1667 45.5,70.5C 44.9569,70.44 44.6236,70.1067 44.5,69.5C 47.8333,68.1667 51.1667,68.1667 54.5,69.5C 54.3764,70.1067 54.0431,70.44 53.5,70.5 Z"/></g>
<g><path style="opacity:1" fill="#333331" d="M 45.5,70.5 C 48.1667,69.1667 50.8333,69.1667 53.5,70.5C 52.1851,71.4756 50.8518,72.4756 49.5,73.5C 48.1482,72.4756 46.8149,71.4756 45.5,70.5 Z"/></g>
<g><path style="opacity:1" fill="#625b33" d="M 39.5,78.5 C 39.56,77.9569 39.8933,77.6236 40.5,77.5C 42.9255,79.6096 45.5921,80.1096 48.5,79C 45.375,81.0345 42.375,80.8678 39.5,78.5 Z"/></g>
<g><path style="opacity:1" fill="#645e34" d="M 50.5,79.5 C 53.0119,79.5755 55.6786,79.4088 58.5,79C 55.9543,80.8116 53.2877,80.9783 50.5,79.5 Z"/></g>
</svg>
