<?xml version="1.0" encoding="UTF-8"?>
<!DOCTYPE svg PUBLIC "-//W3C//DTD SVG 1.1//EN" "http://www.w3.org/Graphics/SVG/1.1/DTD/svg11.dtd">
<svg xmlns="http://www.w3.org/2000/svg" version="1.1" width="500px" height="500px" style="shape-rendering:geometricPrecision; text-rendering:geometricPrecision; image-rendering:optimizeQuality; fill-rule:evenodd; clip-rule:evenodd" xmlns:xlink="http://www.w3.org/1999/xlink">
<g><path style="opacity:1" fill="#15245c" d="M 127.5,61.5 C 126.167,62.1667 125.167,63.1667 124.5,64.5C 111.859,70.5576 103.859,66.7243 100.5,53C 103.075,39.5478 110.741,35.2145 123.5,40C 131.071,46.0992 132.404,53.2659 127.5,61.5 Z"/></g>
<g><path style="opacity:1" fill="#13235c" d="M 391.5,48.5 C 391.448,52.1981 391.114,55.8648 390.5,59.5C 386.801,66.1325 381.134,68.6325 373.5,67C 371.509,66.6264 369.842,65.793 368.5,64.5C 367.833,63.1667 366.833,62.1667 365.5,61.5C 359.824,48.8517 363.824,40.8517 377.5,37.5C 384.548,38.2222 389.215,41.8888 391.5,48.5 Z"/></g>
<g><path style="opacity:0.333" fill="#6f81a4" d="M 391.5,48.5 C 392.902,52.2896 392.569,55.9563 390.5,59.5C 391.114,55.8648 391.448,52.1981 391.5,48.5 Z"/></g>
<g><path style="opacity:1" fill="#233369" d="M 127.5,61.5 C 138.302,72.1332 149.302,82.6332 160.5,93C 162.715,94.0438 165.048,94.7105 167.5,95C 182.702,110.035 197.702,125.201 212.5,140.5C 211.5,140.833 210.833,141.5 210.5,142.5C 194.864,129.341 179.198,116.175 163.5,103C 157.645,94.1349 150.645,86.1349 142.5,79C 138.2,75.7019 134.2,72.0352 130.5,68C 128.595,66.5787 126.595,65.412 124.5,64.5C 125.167,63.1667 126.167,62.1667 127.5,61.5 Z"/></g>
<g><path style="opacity:0.999" fill="#233269" d="M 365.5,61.5 C 366.833,62.1667 367.833,63.1667 368.5,64.5C 361.1,69.7221 354.1,75.5554 347.5,82C 340.314,88.1705 334.314,95.1705 329.5,103C 313.654,116.746 297.654,130.246 281.5,143.5C 280.791,142.596 279.791,142.263 278.5,142.5C 293.965,126.535 309.632,110.701 325.5,95C 327.5,94.6667 329.5,94.3333 331.5,94C 343.032,83.2999 354.365,72.4665 365.5,61.5 Z"/></g>
<g><path style="opacity:1" fill="#0b1b25" d="M 139.5,173.5 C 145.177,180.207 150.843,186.873 156.5,193.5C 157.449,195.777 158.782,197.777 160.5,199.5C 167.474,209.64 174.64,219.64 182,229.5C 226.973,206.622 271.807,206.956 316.5,230.5C 323.497,220.508 330.497,210.508 337.5,200.5C 339.063,199.055 340.396,197.389 341.5,195.5C 347.404,188.692 353.071,181.692 358.5,174.5C 383.3,146.597 412.634,124.764 446.5,109C 453.908,105.984 461.575,104.651 469.5,105C 473.927,107.068 475.594,110.568 474.5,115.5C 473.931,123.776 472.098,131.776 469,139.5C 460.199,161.121 448.366,180.787 433.5,198.5C 424.529,208.474 415.529,218.474 406.5,228.5C 403.236,230.094 400.569,232.427 398.5,235.5C 386.341,245.742 374.008,255.742 361.5,265.5C 387.129,295.609 392.295,328.942 377,365.5C 363.632,387.526 344.798,403.026 320.5,412C 275.724,427.808 230.724,428.475 185.5,414C 159.547,405.618 139.047,390.118 124,367.5C 110.748,341.531 110.082,315.198 122,288.5C 125.962,280.064 130.796,272.231 136.5,265C 123.063,254.733 110.063,243.899 97.5,232.5C 95.4509,229.45 92.7843,227.117 89.5,225.5C 80.4308,215.77 71.7641,205.77 63.5,195.5C 46.3628,175.24 33.8628,152.24 26,126.5C 24.701,120.881 24.3677,115.214 25,109.5C 25.8333,107.333 27.3333,105.833 29.5,105C 38.5507,104.477 47.2174,106.143 55.5,110C 87.7319,125.611 115.732,146.778 139.5,173.5 Z"/></g>
<g><path style="opacity:1" fill="#0b1f58" d="M 278.5,142.5 C 279.791,142.263 280.791,142.596 281.5,143.5C 284.763,147.94 288.263,152.273 292,156.5C 294.65,160.133 296.483,164.133 297.5,168.5C 264.002,168.19 230.336,168.523 196.5,169.5C 196.5,168.5 196.5,167.5 196.5,166.5C 199.526,158.298 204.36,151.298 211,145.5C 211.47,144.423 211.303,143.423 210.5,142.5C 210.833,141.5 211.5,140.833 212.5,140.5C 213.458,140.953 214.292,141.619 215,142.5C 236.166,129.185 257.333,129.185 278.5,142.5 Z"/></g>
<g><path style="opacity:1" fill="#fddc00" d="M 214.5,223.5 C 223.022,222.523 231.355,221.19 239.5,219.5C 240.833,219.5 242.167,219.5 243.5,219.5C 256.953,219.051 270.287,220.051 283.5,222.5C 297.002,225.037 309.668,229.704 321.5,236.5C 322.167,236.167 322.833,235.833 323.5,235.5C 322.572,234.232 322.405,232.899 323,231.5C 324.363,229.316 325.863,227.316 327.5,225.5C 328.496,225.586 329.329,225.252 330,224.5C 349.241,195.918 372.075,170.418 398.5,148C 401.095,145.787 403.928,143.953 407,142.5C 409.268,146.493 411.434,150.493 413.5,154.5C 417.958,171.43 419.458,188.764 418,206.5C 399.531,226.808 379.364,245.141 357.5,261.5C 356.086,260.376 354.586,259.376 353,258.5C 352.833,259 352.667,259.5 352.5,260C 364.235,274.637 372.402,291.137 377,309.5C 378.541,320.116 378.875,330.783 378,341.5C 377.307,346.523 375.807,351.189 373.5,355.5C 373.736,335.103 363.736,326.603 343.5,330C 333.555,336.55 328.555,345.883 328.5,358C 330.928,379.217 341.928,385.384 361.5,376.5C 346.84,392.178 329.173,403.344 308.5,410C 268.696,421.613 229.029,421.28 189.5,409C 171.107,402.818 155.44,392.651 142.5,378.5C 160.927,383.093 170.594,375.76 171.5,356.5C 169.858,336.333 159.191,327.5 139.5,330C 130.355,335.121 126.021,342.954 126.5,353.5C 117.891,327.269 120.391,301.936 134,277.5C 137.972,271.362 142.138,265.362 146.5,259.5C 146,259.167 145.5,258.833 145,258.5C 140.586,261.23 137.086,260.23 134.5,255.5C 117.004,240.512 100.171,224.512 84,207.5C 82.8938,199.091 82.0604,190.758 81.5,182.5C 81.8423,168.447 84.3423,154.78 89,141.5C 89.3879,140.572 90.0546,139.905 91,139.5C 125.833,165.327 154.166,196.66 176,233.5C 174.926,234.618 173.76,235.618 172.5,236.5C 172.833,236.833 173.167,237.167 173.5,237.5C 186.376,230.43 200.043,225.764 214.5,223.5 Z"/></g>
<g><path style="opacity:1" fill="#e3dc06" d="M 413.5,154.5 C 411.434,150.493 409.268,146.493 407,142.5C 403.928,143.953 401.095,145.787 398.5,148C 372.075,170.418 349.241,195.918 330,224.5C 329.329,225.252 328.496,225.586 327.5,225.5C 348.928,191.735 375.928,163.068 408.5,139.5C 411.161,144.15 412.828,149.15 413.5,154.5 Z"/></g>
<g><path style="opacity:1" fill="#0e3772" d="M 196.5,166.5 C 196.5,167.5 196.5,168.5 196.5,169.5C 230.336,168.523 264.002,168.19 297.5,168.5C 317.953,169.483 338.286,171.483 358.5,174.5C 353.071,181.692 347.404,188.692 341.5,195.5C 324.671,192.271 307.671,190.105 290.5,189C 260.502,188.5 230.502,188.333 200.5,188.5C 194.611,188.45 188.944,189.116 183.5,190.5C 174.49,191.418 165.49,192.418 156.5,193.5C 150.843,186.873 145.177,180.207 139.5,173.5C 156.096,171.339 172.763,169.839 189.5,169C 192.177,168.832 194.51,167.999 196.5,166.5 Z"/></g>
<g><path style="opacity:1" fill="#7187a7" d="M 200.5,188.5 C 195.056,189.884 189.389,190.55 183.5,190.5C 188.944,189.116 194.611,188.45 200.5,188.5 Z"/></g>
<g><path style="opacity:1" fill="#d9dbdd" d="M 200.5,188.5 C 230.502,188.333 260.502,188.5 290.5,189C 307.671,190.105 324.671,192.271 341.5,195.5C 340.396,197.389 339.063,199.055 337.5,200.5C 336.77,198.955 335.437,198.122 333.5,198C 307.458,192.396 281.124,190.229 254.5,191.5C 233.489,191.553 212.489,192.053 191.5,193C 182.421,193.791 173.421,195.124 164.5,197C 163.142,197.934 161.808,198.768 160.5,199.5C 158.782,197.777 157.449,195.777 156.5,193.5C 165.49,192.418 174.49,191.418 183.5,190.5C 189.389,190.55 195.056,189.884 200.5,188.5 Z"/></g>
<g><path style="opacity:1" fill="#fcfcfc" d="M 337.5,200.5 C 330.497,210.508 323.497,220.508 316.5,230.5C 271.807,206.956 226.973,206.622 182,229.5C 174.64,219.64 167.474,209.64 160.5,199.5C 161.808,198.768 163.142,197.934 164.5,197C 173.421,195.124 182.421,193.791 191.5,193C 212.489,192.053 233.489,191.553 254.5,191.5C 281.124,190.229 307.458,192.396 333.5,198C 335.437,198.122 336.77,198.955 337.5,200.5 Z"/></g>
<g><path style="opacity:1" fill="#0a2d68" d="M 63.5,195.5 C 71.7641,205.77 80.4308,215.77 89.5,225.5C 77.9054,238.932 71.572,254.598 70.5,272.5C 69.6692,284.66 69.1692,296.993 69,309.5C 68.5002,299.506 68.3335,289.506 68.5,279.5C 55.0122,281.117 41.6788,280.783 28.5,278.5C 26.1846,251.119 33.8512,227.119 51.5,206.5C 54.6953,203.148 58.362,200.315 62.5,198C 63.2524,197.329 63.5858,196.496 63.5,195.5 Z"/></g>
<g><path style="opacity:1" fill="#282822" d="M 243.5,219.5 C 253.658,218.341 263.992,218.175 274.5,219C 277.802,219.661 280.802,220.828 283.5,222.5C 270.287,220.051 256.953,219.051 243.5,219.5 Z"/></g>
<g><path style="opacity:1" fill="#a5a112" d="M 239.5,219.5 C 231.355,221.19 223.022,222.523 214.5,223.5C 222.518,221.066 230.851,219.733 239.5,219.5 Z"/></g>
<g><path style="opacity:0.999" fill="#0a1c46" d="M 51.5,206.5 C 33.8512,227.119 26.1846,251.119 28.5,278.5C 27.6331,305.518 31.2998,331.852 39.5,357.5C 45.8606,379.224 57.5273,397.557 74.5,412.5C 75.1272,413.417 75.4606,414.417 75.5,415.5C 47.5345,392.917 31.5345,363.584 27.5,327.5C 25.5865,307.55 24.5865,287.55 24.5,267.5C 24.0145,242.817 33.0145,222.484 51.5,206.5 Z"/></g>
<g><path style="opacity:1" fill="#0d1f4b" d="M 440.5,205.5 C 458.517,220.872 468.017,240.538 469,264.5C 470.323,289.975 468.99,315.308 465,340.5C 460.856,368.797 448.356,392.464 427.5,411.5C 429.808,408.185 432.141,404.851 434.5,401.5C 449.818,380.404 458.985,356.737 462,330.5C 464.232,306.877 464.898,283.21 464,259.5C 463.387,253.436 462.387,247.436 461,241.5C 460.626,239.509 459.793,237.842 458.5,236.5C 455.954,230.697 453.12,225.03 450,219.5C 446.137,214.975 442.304,210.475 438.5,206C 439.094,205.536 439.761,205.369 440.5,205.5 Z"/></g>
<g><path style="opacity:1" fill="#d7d00a" d="M 81.5,182.5 C 82.0604,190.758 82.8938,199.091 84,207.5C 100.171,224.512 117.004,240.512 134.5,255.5C 124.103,247.947 114.103,239.781 104.5,231C 96.9492,222.738 89.2825,214.571 81.5,206.5C 80.1796,198.343 80.1796,190.343 81.5,182.5 Z"/></g>
<g><path style="opacity:1" fill="#091e58" d="M 458.5,236.5 C 459.793,237.842 460.626,239.509 461,241.5C 462.387,247.436 463.387,253.436 464,259.5C 464.898,283.21 464.232,306.877 462,330.5C 458.985,356.737 449.818,380.404 434.5,401.5C 418.833,400.833 403.167,400.167 387.5,399.5C 410.154,373.229 421.821,342.562 422.5,307.5C 423.495,296.012 423.828,284.345 423.5,272.5C 423.47,271.503 423.97,270.836 425,270.5C 439.776,267.134 451.109,259.134 459,246.5C 459.388,243.151 459.221,239.817 458.5,236.5 Z"/></g>
<g><path style="opacity:1" fill="#09316b" d="M 433.5,198.5 C 435.479,201.146 437.812,203.479 440.5,205.5C 439.761,205.369 439.094,205.536 438.5,206C 442.304,210.475 446.137,214.975 450,219.5C 453.12,225.03 455.954,230.697 458.5,236.5C 459.221,239.817 459.388,243.151 459,246.5C 451.109,259.134 439.776,267.134 425,270.5C 423.97,270.836 423.47,271.503 423.5,272.5C 422.5,268.5 421.5,264.5 420.5,260.5C 417.996,248.832 413.33,238.165 406.5,228.5C 415.529,218.474 424.529,208.474 433.5,198.5 Z"/></g>
<g><path style="opacity:1" fill="#8c95ad" d="M 420.5,260.5 C 421.5,264.5 422.5,268.5 423.5,272.5C 423.828,284.345 423.495,296.012 422.5,307.5C 422.882,291.768 422.215,276.102 420.5,260.5 Z"/></g>
<g><path style="opacity:1" fill="#e3e5e6" d="M 89.5,225.5 C 92.7843,227.117 95.4509,229.45 97.5,232.5C 95.3763,233.031 93.8763,234.365 93,236.5C 86.5473,247.643 82.8806,259.643 82,272.5C 79.9259,298.504 81.9259,324.171 88,349.5C 101.397,392.897 130.231,419.73 174.5,430C 220.037,439.153 265.704,439.819 311.5,432C 374.914,417.092 408.08,376.925 411,311.5C 411.862,295.801 411.529,280.134 410,264.5C 408.393,253.824 404.559,244.157 398.5,235.5C 400.569,232.427 403.236,230.094 406.5,228.5C 413.33,238.165 417.996,248.832 420.5,260.5C 422.215,276.102 422.882,291.768 422.5,307.5C 421.821,342.562 410.154,373.229 387.5,399.5C 365.764,418.201 340.764,430.201 312.5,435.5C 289.456,438.863 266.29,440.863 243,441.5C 221.258,441.176 199.758,438.843 178.5,434.5C 159.264,431.199 141.264,424.532 124.5,414.5C 97.2629,395.713 80.2629,370.047 73.5,337.5C 70.8669,315.926 69.8669,294.26 70.5,272.5C 71.572,254.598 77.9054,238.932 89.5,225.5 Z"/></g>
<g><path style="opacity:1" fill="#fdfdfd" d="M 97.5,232.5 C 110.063,243.899 123.063,254.733 136.5,265C 130.796,272.231 125.962,280.064 122,288.5C 110.082,315.198 110.748,341.531 124,367.5C 139.047,390.118 159.547,405.618 185.5,414C 230.724,428.475 275.724,427.808 320.5,412C 344.798,403.026 363.632,387.526 377,365.5C 392.295,328.942 387.129,295.609 361.5,265.5C 374.008,255.742 386.341,245.742 398.5,235.5C 404.559,244.157 408.393,253.824 410,264.5C 411.529,280.134 411.862,295.801 411,311.5C 408.08,376.925 374.914,417.092 311.5,432C 265.704,439.819 220.037,439.153 174.5,430C 130.231,419.73 101.397,392.897 88,349.5C 81.9259,324.171 79.9259,298.504 82,272.5C 82.8806,259.643 86.5473,247.643 93,236.5C 93.8763,234.365 95.3763,233.031 97.5,232.5 Z"/></g>
<g><path style="opacity:1" fill="#0a1822" d="M 312.5,273.5 C 327.091,271.712 336.925,277.712 342,291.5C 344.452,312.377 335.285,322.211 314.5,321C 300.637,316.129 294.804,306.296 297,291.5C 299.535,283.138 304.702,277.138 312.5,273.5 Z"/></g>
<g><path style="opacity:1" fill="#f7f7f7" d="M 313.5,278.5 C 324.041,277.539 328.541,282.205 327,292.5C 324.232,298.172 319.732,300.006 313.5,298C 308.15,294.629 306.317,289.796 308,283.5C 309.73,281.598 311.563,279.931 313.5,278.5 Z"/></g>
<g><path style="opacity:1" fill="#0b1922" d="M 172.5,274.5 C 193.225,272.734 203.392,282.068 203,302.5C 199.414,316.74 190.247,323.24 175.5,322C 159.262,316.295 153.429,305.129 158,288.5C 161.408,282.257 166.242,277.59 172.5,274.5 Z"/></g>
<g><path style="opacity:1" fill="#f8f8f8" d="M 177.5,279.5 C 188.042,277.886 192.876,282.219 192,292.5C 189.611,298.777 185.111,300.943 178.5,299C 172.891,295.723 171.058,290.89 173,284.5C 174.707,282.963 176.207,281.296 177.5,279.5 Z"/></g>
<g><path style="opacity:1" fill="#1e366b" d="M 70.5,272.5 C 69.8669,294.26 70.8669,315.926 73.5,337.5C 63.4873,343.37 56.9873,352.036 54,363.5C 53.2074,368.211 52.2074,372.878 51,377.5C 46.3676,371.228 42.5342,364.561 39.5,357.5C 31.2998,331.852 27.6331,305.518 28.5,278.5C 41.6788,280.783 55.0122,281.117 68.5,279.5C 68.3335,289.506 68.5002,299.506 69,309.5C 69.1692,296.993 69.6692,284.66 70.5,272.5 Z"/></g>
<g><path style="opacity:0.945" fill="#285b86" d="M 24.5,267.5 C 24.5865,287.55 25.5865,307.55 27.5,327.5C 24.0307,307.603 23.0307,287.603 24.5,267.5 Z"/></g>
<g><path style="opacity:1" fill="#0c1124" d="M 244.5,324.5 C 248.375,324.085 252.042,324.585 255.5,326C 252.706,327.557 249.706,327.89 246.5,327C 245.244,326.583 244.577,325.75 244.5,324.5 Z"/></g>
<g><path style="opacity:1" fill="#ed1f24" d="M 142.5,378.5 C 135.411,371.329 130.077,362.996 126.5,353.5C 126.021,342.954 130.355,335.121 139.5,330C 159.191,327.5 169.858,336.333 171.5,356.5C 170.594,375.76 160.927,383.093 142.5,378.5 Z"/></g>
<g><path style="opacity:1" fill="#ed1e24" d="M 373.5,355.5 C 370.776,363.287 366.776,370.287 361.5,376.5C 341.928,385.384 330.928,379.217 328.5,358C 328.555,345.883 333.555,336.55 343.5,330C 363.736,326.603 373.736,335.103 373.5,355.5 Z"/></g>
<g><path style="opacity:1" fill="#131b21" d="M 216.5,343.5 C 217.777,344.898 219.443,345.564 221.5,345.5C 224.386,345.196 227.052,344.529 229.5,343.5C 235.994,341.21 242.661,339.543 249.5,338.5C 260.115,340.821 270.781,342.821 281.5,344.5C 287.846,344.827 293.179,342.661 297.5,338C 298.944,337.219 300.277,337.386 301.5,338.5C 298.967,343.853 294.801,347.186 289,348.5C 286.927,367.811 279.093,384.311 265.5,398C 259.752,402.252 253.418,404.252 246.5,404C 241.046,400.88 236.546,396.713 233,391.5C 225.339,378.849 220.672,365.182 219,350.5C 211.073,347.411 206.24,341.745 204.5,333.5C 207.721,334.882 210.221,337.215 212,340.5C 213.615,341.386 215.115,342.386 216.5,343.5 Z"/></g>
<g><path style="opacity:1" fill="#b3a110" d="M 216.5,343.5 C 220.833,343.5 225.167,343.5 229.5,343.5C 227.052,344.529 224.386,345.196 221.5,345.5C 219.443,345.564 217.777,344.898 216.5,343.5 Z"/></g>
<g><path style="opacity:1" fill="#b21115" d="M 242.5,344.5 C 247.844,344.334 253.177,344.501 258.5,345C 267.17,346.834 275.837,348.668 284.5,350.5C 283.228,357.483 281.061,364.15 278,370.5C 261.644,361.741 245.144,361.407 228.5,369.5C 225.577,363.143 223.911,356.476 223.5,349.5C 230.061,348.278 236.394,346.611 242.5,344.5 Z"/></g>
<g><path style="opacity:1" fill="#ea1c24" d="M 243.5,368.5 C 255.229,367.279 266.229,369.446 276.5,375C 271.767,384.848 264.767,392.514 255.5,398C 249.184,399.426 244.017,397.593 240,392.5C 235.743,386.992 232.243,380.992 229.5,374.5C 233.999,371.897 238.665,369.897 243.5,368.5 Z"/></g>
<g><path style="opacity:1" fill="#0a225c" d="M 73.5,337.5 C 80.2629,370.047 97.2629,395.713 124.5,414.5C 108.962,415.196 93.2949,415.863 77.5,416.5C 76.5084,416.672 75.8417,416.338 75.5,415.5C 75.4606,414.417 75.1272,413.417 74.5,412.5C 57.5273,397.557 45.8606,379.224 39.5,357.5C 42.5342,364.561 46.3676,371.228 51,377.5C 52.2074,372.878 53.2074,368.211 54,363.5C 56.9873,352.036 63.4873,343.37 73.5,337.5 Z"/></g>
<g><path style="opacity:1" fill="#0b2e68" d="M 124.5,414.5 C 141.264,424.532 159.264,431.199 178.5,434.5C 179.091,435.151 179.757,435.818 180.5,436.5C 160.508,437.333 140.508,437.833 120.5,438C 121.712,439.107 121.379,439.607 119.5,439.5C 103.952,434.398 89.9518,426.731 77.5,416.5C 93.2949,415.863 108.962,415.196 124.5,414.5 Z"/></g>
<g><path style="opacity:1" fill="#0b2d67" d="M 387.5,399.5 C 403.167,400.167 418.833,400.833 434.5,401.5C 432.141,404.851 429.808,408.185 427.5,411.5C 413.73,424.394 397.73,433.728 379.5,439.5C 379.389,438.883 379.056,438.383 378.5,438C 356.144,438.158 334.144,437.325 312.5,435.5C 340.764,430.201 365.764,418.201 387.5,399.5 Z"/></g>
<g><path style="opacity:0.999" fill="#0c356f" d="M 178.5,434.5 C 199.758,438.843 221.258,441.176 243,441.5C 266.29,440.863 289.456,438.863 312.5,435.5C 334.144,437.325 356.144,438.158 378.5,438C 379.056,438.383 379.389,438.883 379.5,439.5C 362.212,446.491 344.212,451.324 325.5,454C 274.495,461.292 223.495,461.292 172.5,454C 154.166,451.169 136.5,446.336 119.5,439.5C 121.379,439.607 121.712,439.107 120.5,438C 140.508,437.833 160.508,437.333 180.5,436.5C 179.757,435.818 179.091,435.151 178.5,434.5 Z"/></g>
</svg>
