<?xml version="1.0" encoding="UTF-8"?>
<!DOCTYPE svg PUBLIC "-//W3C//DTD SVG 1.1//EN" "http://www.w3.org/Graphics/SVG/1.1/DTD/svg11.dtd">
<svg xmlns="http://www.w3.org/2000/svg" version="1.1" width="79px" height="45px" style="shape-rendering:geometricPrecision; text-rendering:geometricPrecision; image-rendering:optimizeQuality; fill-rule:evenodd; clip-rule:evenodd" xmlns:xlink="http://www.w3.org/1999/xlink">
<g><path style="opacity:1" fill="#2c2a2a" d="M 56.5,-0.5 C 57.5,-0.5 58.5,-0.5 59.5,-0.5C 61.251,3.14858 60.251,5.81525 56.5,7.5C 55.8333,6.16667 55.1667,4.83333 54.5,3.5C 54.5,2.5 54.5,1.5 54.5,0.5C 55.4916,0.67158 56.1583,0.338246 56.5,-0.5 Z"/></g>
<g><path style="opacity:1" fill="#1b1a1a" d="M 15.5,-0.5 C 17.5,-0.5 19.5,-0.5 21.5,-0.5C 21.5,-0.166667 21.5,0.166667 21.5,0.5C 20.7814,2.76375 20.448,5.09709 20.5,7.5C 17.167,5.84129 15.5003,3.17463 15.5,-0.5 Z"/></g>
<g><path style="opacity:1" fill="#a0905a" d="M 54.5,3.5 C 55.1667,4.83333 55.8333,6.16667 56.5,7.5C 56.1667,8.5 55.5,9.16667 54.5,9.5C 54.5,7.5 54.5,5.5 54.5,3.5 Z"/></g>
<g><path style="opacity:1" fill="#fedf28" d="M 28.5,4.5 C 29.5,4.83333 30.1667,5.5 30.5,6.5C 30.762,7.97782 30.4287,9.31116 29.5,10.5C 28.2887,9.12554 27.2887,7.62554 26.5,6C 26.8361,4.97008 27.5028,4.47008 28.5,4.5 Z"/></g>
<g><path style="opacity:0.878" fill="#eee6b4" d="M 24.5,10.5 C 25.4959,10.4142 26.3292,10.7476 27,11.5C 27.4974,14.146 27.6641,16.8127 27.5,19.5C 27.5,20.1667 27.5,20.8333 27.5,21.5C 27.002,17.7301 26.002,14.0634 24.5,10.5 Z"/></g>
<g><path style="opacity:1" fill="#fbe36b" d="M 54.5,0.5 C 54.5,1.5 54.5,2.5 54.5,3.5C 54.5,5.5 54.5,7.5 54.5,9.5C 53.2905,9.93205 52.2905,10.5987 51.5,11.5C 50.8333,11.5 50.5,11.8333 50.5,12.5C 50.1034,13.525 49.4368,13.6917 48.5,13C 46.6997,11.1881 45.0331,9.3548 43.5,7.5C 46.899,4.77186 50.5657,2.43852 54.5,0.5 Z"/></g>
<g><path style="opacity:1" fill="#f3db79" d="M 21.5,0.5 C 24.3311,1.0787 26.6644,2.41203 28.5,4.5C 27.5028,4.47008 26.8361,4.97008 26.5,6C 27.2887,7.62554 28.2887,9.12554 29.5,10.5C 30.4287,9.31116 30.762,7.97782 30.5,6.5C 34.0151,5.76096 37.3485,5.76096 40.5,6.5C 39.3065,6.97041 38.6399,7.97041 38.5,9.5C 38.7259,11.1886 39.0592,12.8553 39.5,14.5C 38.1603,15.9896 37.1603,17.6563 36.5,19.5C 34.8333,20.1667 33.1667,20.8333 31.5,21.5C 30.8902,20.609 30.5569,19.609 30.5,18.5C 29.391,18.5569 28.391,18.8902 27.5,19.5C 27.6641,16.8127 27.4974,14.146 27,11.5C 26.3292,10.7476 25.4959,10.4142 24.5,10.5C 23.1283,9.48837 21.795,8.48837 20.5,7.5C 20.448,5.09709 20.7814,2.76375 21.5,0.5 Z"/></g>
<g><path style="opacity:0.62" fill="#f7eab3" d="M 51.5,12.5 C 51.5,12.1667 51.5,11.8333 51.5,11.5C 52.8333,11.5 54.1667,11.5 55.5,11.5C 55.8128,15.0419 55.4794,18.3752 54.5,21.5C 54.5,18.5 54.5,15.5 54.5,12.5C 53.5,12.5 52.5,12.5 51.5,12.5 Z"/></g>
<g><path style="opacity:1" fill="#706d5f" d="M 30.5,15.5 C 31.2506,14.4265 32.2506,14.2599 33.5,15C 34.7911,16.2917 34.7911,17.4583 33.5,18.5C 32.5,17.5 31.5,16.5 30.5,15.5 Z"/></g>
<g><path style="opacity:1" fill="#fcdd48" d="M 40.5,6.5 C 41.791,6.26269 42.791,6.59603 43.5,7.5C 45.0331,9.3548 46.6997,11.1881 48.5,13C 49.4368,13.6917 50.1034,13.525 50.5,12.5C 50.8333,12.5 51.1667,12.5 51.5,12.5C 52.5,12.5 53.5,12.5 54.5,12.5C 54.5,15.5 54.5,18.5 54.5,21.5C 52.7512,22.9851 50.7512,23.9851 48.5,24.5C 48.5,26.5 48.5,28.5 48.5,30.5C 44.0584,29.7252 43.0584,27.7252 45.5,24.5C 47.1015,23.4812 48.1015,21.9812 48.5,20C 48.1639,18.9701 47.4972,18.4701 46.5,18.5C 46.8238,15.3198 45.4904,14.1531 42.5,15C 40.8388,18.1499 41.8388,19.6499 45.5,19.5C 45.1667,20.1667 44.8333,20.8333 44.5,21.5C 41.8877,20.6295 39.221,19.9628 36.5,19.5C 37.1603,17.6563 38.1603,15.9896 39.5,14.5C 39.0592,12.8553 38.7259,11.1886 38.5,9.5C 38.6399,7.97041 39.3065,6.97041 40.5,6.5 Z"/></g>
<g><path style="opacity:1" fill="#56513d" d="M 46.5,18.5 C 46.5,19.1667 46.1667,19.5 45.5,19.5C 41.8388,19.6499 40.8388,18.1499 42.5,15C 45.4904,14.1531 46.8238,15.3198 46.5,18.5 Z"/></g>
<g><path style="opacity:1" fill="#111008" d="M 30.5,15.5 C 31.5,16.5 32.5,17.5 33.5,18.5C 32.6522,19.625 31.6522,19.625 30.5,18.5C 30.5,17.5 30.5,16.5 30.5,15.5 Z"/></g>
<g><path style="opacity:1" fill="#f04529" d="M 46.5,18.5 C 47.4972,18.4701 48.1639,18.9701 48.5,20C 48.1015,21.9812 47.1015,23.4812 45.5,24.5C 44.596,23.791 44.2627,22.791 44.5,21.5C 44.8333,20.8333 45.1667,20.1667 45.5,19.5C 46.1667,19.5 46.5,19.1667 46.5,18.5 Z"/></g>
<g><path style="opacity:1" fill="#cf3c1f" d="M 30.5,18.5 C 30.5569,19.609 30.8902,20.609 31.5,21.5C 31.3059,25.0048 30.3059,25.3382 28.5,22.5C 27.8333,22.5 27.5,22.1667 27.5,21.5C 27.5,20.8333 27.5,20.1667 27.5,19.5C 28.391,18.8902 29.391,18.5569 30.5,18.5 Z"/></g>
<g><path style="opacity:1" fill="#ecd370" d="M 36.5,19.5 C 39.221,19.9628 41.8877,20.6295 44.5,21.5C 44.2627,22.791 44.596,23.791 45.5,24.5C 43.0584,27.7252 44.0584,29.7252 48.5,30.5C 48.5,28.5 48.5,26.5 48.5,24.5C 49.4861,26.4261 50.4861,28.4261 51.5,30.5C 46.6023,31.8219 41.6023,32.1553 36.5,31.5C 36.5,30.5 36.5,29.5 36.5,28.5C 33.0542,28.9819 29.7209,28.9819 26.5,28.5C 27.3627,26.5786 28.0293,24.5786 28.5,22.5C 30.3059,25.3382 31.3059,25.0048 31.5,21.5C 33.1667,20.8333 34.8333,20.1667 36.5,19.5 Z"/></g>
<g><path style="opacity:0.758" fill="#2c2828" d="M 26.5,28.5 C 29.7209,28.9819 33.0542,28.9819 36.5,28.5C 36.5,29.5 36.5,30.5 36.5,31.5C 41.6023,32.1553 46.6023,31.8219 51.5,30.5C 58.1544,30.6336 60.3211,33.9669 58,40.5C 56.3732,41.5323 55.2066,42.8656 54.5,44.5C 52.1667,44.5 49.8333,44.5 47.5,44.5C 39.1278,42.9347 30.4612,41.768 21.5,41C 20.3781,37.5915 20.2114,34.0915 21,30.5C 22.4443,28.8446 24.2776,28.178 26.5,28.5 Z"/></g>
<g><path style="opacity:1" fill="#e9e9e9" d="M 23.5,30.5 C 26.1569,30.162 28.4902,30.8287 30.5,32.5C 28.784,32.9972 27.1173,33.3306 25.5,33.5C 30.0482,33.8575 31.3815,36.0242 29.5,40C 27.2305,40.7581 25.0639,40.5914 23,39.5C 22.4092,38.5165 22.7425,37.8499 24,37.5C 25.3004,38.452 26.467,38.452 27.5,37.5C 23.432,36.4831 22.0987,34.1497 23.5,30.5 Z"/></g>
<g><path style="opacity:1" fill="#dddcdd" d="M 31.5,30.5 C 32.5,30.5 33.5,30.5 34.5,30.5C 34.3505,31.552 34.5172,32.552 35,33.5C 36.3333,32.1667 37.6667,32.1667 39,33.5C 39.4966,35.8098 39.6633,38.1432 39.5,40.5C 38.5,40.5 37.5,40.5 36.5,40.5C 35.8333,32.5 35.1667,32.5 34.5,40.5C 33.5,40.5 32.5,40.5 31.5,40.5C 31.5,37.1667 31.5,33.8333 31.5,30.5 Z"/></g>
<g><path style="opacity:1" fill="#e7e7e7" d="M 42.5,32.5 C 48.4877,32.664 49.821,35.164 46.5,40C 40.4034,40.1475 39.0701,37.6475 42.5,32.5 Z"/></g>
<g><path style="opacity:1" fill="#eeeded" d="M 49.5,32.5 C 55.6739,31.1729 57.8406,33.5062 56,39.5C 54.9887,40.3366 53.8221,40.67 52.5,40.5C 52.5,41.5 52.5,42.5 52.5,43.5C 51.5,43.5 50.5,43.5 49.5,43.5C 49.5,39.8333 49.5,36.1667 49.5,32.5 Z"/></g>
<g><path style="opacity:1" fill="#353132" d="M 43.5,34.5 C 44.5862,34.62 45.2528,35.2867 45.5,36.5C 45.1667,37.1667 44.8333,37.8333 44.5,38.5C 43.5713,37.3112 43.238,35.9778 43.5,34.5 Z"/></g>
<g><path style="opacity:1" fill="#4a4748" d="M 52.5,34.5 C 53.5862,34.62 54.2528,35.2867 54.5,36.5C 54.1667,37.1667 53.8333,37.8333 53.5,38.5C 52.5713,37.3112 52.238,35.9778 52.5,34.5 Z"/></g>
</svg>
