<?xml version="1.0" encoding="UTF-8"?>
<!DOCTYPE svg PUBLIC "-//W3C//DTD SVG 1.1//EN" "http://www.w3.org/Graphics/SVG/1.1/DTD/svg11.dtd">
<svg xmlns="http://www.w3.org/2000/svg" version="1.1" width="175px" height="50px" style="shape-rendering:geometricPrecision; text-rendering:geometricPrecision; image-rendering:optimizeQuality; fill-rule:evenodd; clip-rule:evenodd" xmlns:xlink="http://www.w3.org/1999/xlink">
<g><path style="opacity:1" fill="#484848" d="M -0.5,-0.5 C 15.8333,-0.5 32.1667,-0.5 48.5,-0.5C 43.5839,6.31733 38.4172,12.984 33,19.5C 32.8485,22.1193 32.0152,24.4527 30.5,26.5C 27.8336,27.0389 25.6669,28.3722 24,30.5C 18.9508,36.7097 14.1175,43.0431 9.5,49.5C 6.16667,49.5 2.83333,49.5 -0.5,49.5C -0.5,32.8333 -0.5,16.1667 -0.5,-0.5 Z"/></g>
<g><path style="opacity:1" fill="#404040" d="M 162.5,-0.5 C 166.167,-0.5 169.833,-0.5 173.5,-0.5C 160.547,16.4553 147.213,33.1219 133.5,49.5C 117.167,49.5 100.833,49.5 84.5,49.5C 84.8039,48.8501 85.1373,48.1835 85.5,47.5C 98.6604,46.8333 111.66,46.1667 124.5,45.5C 124.5,43.8333 124.5,42.1667 124.5,40.5C 124.5,38.5 124.5,36.5 124.5,34.5C 125.404,35.209 125.737,36.209 125.5,37.5C 125.337,39.8568 125.503,42.1902 126,44.5C 133.712,35.7902 141.045,26.7902 148,17.5C 149.667,15.3722 151.834,14.0389 154.5,13.5C 156.015,11.4527 156.849,9.11933 157,6.5C 158.842,4.13642 160.675,1.80309 162.5,-0.5 Z"/></g>
<g><path style="opacity:1" fill="#575757" d="M 173.5,-0.5 C 173.833,-0.5 174.167,-0.5 174.5,-0.5C 174.5,4.83333 174.5,10.1667 174.5,15.5C 164.819,26.5175 155.486,37.8509 146.5,49.5C 142.167,49.5 137.833,49.5 133.5,49.5C 147.213,33.1219 160.547,16.4553 173.5,-0.5 Z"/></g>
<g><path style="opacity:1" fill="#464748" d="M 59.5,-0.5 C 93.8333,-0.5 128.167,-0.5 162.5,-0.5C 160.675,1.80309 158.842,4.13642 157,6.5C 156.849,9.11933 156.015,11.4527 154.5,13.5C 151.834,14.0389 149.667,15.3722 148,17.5C 141.045,26.7902 133.712,35.7902 126,44.5C 125.503,42.1902 125.337,39.8568 125.5,37.5C 127.803,35.022 129.969,32.3553 132,29.5C 132.696,24.3837 133.863,19.3837 135.5,14.5C 134.998,13.479 134.332,13.3123 133.5,14C 132.336,16.3284 130.67,18.1618 128.5,19.5C 128.961,17.4496 129.628,15.4496 130.5,13.5C 130.291,12.914 129.957,12.414 129.5,12C 124.227,10.5122 118.893,9.3455 113.5,8.5C 113.5,10.1667 113.5,11.8333 113.5,13.5C 111.833,13.5 110.167,13.5 108.5,13.5C 108.756,11.2075 108.423,9.04083 107.5,7C 102.265,6.78777 97.2651,7.45444 92.5,9C 92.1667,8.66667 91.8333,8.33333 91.5,8C 95.1685,6.06975 95.1685,3.90308 91.5,1.5C 88.0604,3.76813 85.5604,6.76813 84,10.5C 79.2556,5.59116 74.089,5.25783 68.5,9.5C 67.912,11.9109 66.7454,13.9109 65,15.5C 63.9822,9.6552 60.4822,6.98853 54.5,7.5C 56.1933,4.81588 57.86,2.14921 59.5,-0.5 Z"/></g>
<g><path style="opacity:1" fill="#3f3f40" d="M 48.5,-0.5 C 52.1667,-0.5 55.8333,-0.5 59.5,-0.5C 57.86,2.14921 56.1933,4.81588 54.5,7.5C 49.8904,7.97099 45.8904,9.80432 42.5,13C 43.7577,14.7409 44.7577,16.5742 45.5,18.5C 36.8176,28.5195 28.4842,38.8529 20.5,49.5C 16.8333,49.5 13.1667,49.5 9.5,49.5C 14.1175,43.0431 18.9508,36.7097 24,30.5C 25.6669,28.3722 27.8336,27.0389 30.5,26.5C 32.0152,24.4527 32.8485,22.1193 33,19.5C 38.4172,12.984 43.5839,6.31733 48.5,-0.5 Z"/></g>
<g><path style="opacity:1" fill="#424242" d="M 174.5,15.5 C 174.5,26.8333 174.5,38.1667 174.5,49.5C 165.167,49.5 155.833,49.5 146.5,49.5C 155.486,37.8509 164.819,26.5175 174.5,15.5 Z"/></g>
<g><path style="opacity:1" fill="#3a5a96" d="M 128.5,19.5 C 126.768,23.6973 125.435,28.0307 124.5,32.5C 122.139,32.3259 119.806,31.9926 117.5,31.5C 117.5,30.5 117.5,29.5 117.5,28.5C 115.234,28.8588 113.401,28.1922 112,26.5C 109.53,28.4865 106.697,28.9865 103.5,28C 98.6253,26.4002 93.9587,24.5669 89.5,22.5C 89.5,24.5 89.5,26.5 89.5,28.5C 85.9734,27.7397 82.64,26.4064 79.5,24.5C 78.5018,27.3326 76.5018,28.666 73.5,28.5C 70.9789,27.3133 68.4789,27.3133 66,28.5C 64.2894,28.5607 62.956,27.8941 62,26.5C 61.5065,28.1341 61.3398,29.8008 61.5,31.5C 58.8333,31.8333 56.1667,32.1667 53.5,32.5C 53.5979,30.4471 52.9313,28.7804 51.5,27.5C 51.2156,23.2414 49.2156,20.2414 45.5,18.5C 44.7577,16.5742 43.7577,14.7409 42.5,13C 45.8904,9.80432 49.8904,7.97099 54.5,7.5C 60.4822,6.98853 63.9822,9.6552 65,15.5C 66.7454,13.9109 67.912,11.9109 68.5,9.5C 74.089,5.25783 79.2556,5.59116 84,10.5C 85.5604,6.76813 88.0604,3.76813 91.5,1.5C 95.1685,3.90308 95.1685,6.06975 91.5,8C 91.8333,8.33333 92.1667,8.66667 92.5,9C 97.2651,7.45444 102.265,6.78777 107.5,7C 108.423,9.04083 108.756,11.2075 108.5,13.5C 110.167,13.5 111.833,13.5 113.5,13.5C 113.5,11.8333 113.5,10.1667 113.5,8.5C 118.893,9.3455 124.227,10.5122 129.5,12C 129.957,12.414 130.291,12.914 130.5,13.5C 129.628,15.4496 128.961,17.4496 128.5,19.5 Z"/></g>
<g><path style="opacity:1" fill="#dbba2b" d="M 110.5,14.5 C 116.934,14.0928 118.767,16.7594 116,22.5C 111.793,25.7443 108.96,24.9109 107.5,20C 107.863,17.8077 108.863,15.9744 110.5,14.5 Z"/></g>
<g><path style="opacity:1" fill="#365db7" d="M 110.5,16.5 C 111.66,17.6114 112.993,18.6114 114.5,19.5C 111.581,20.9318 110.248,19.9318 110.5,16.5 Z"/></g>
<g><path style="opacity:1" fill="#e9c01f" d="M 103.5,8.5 C 106.465,8.72996 107.798,10.3966 107.5,13.5C 107.12,15.6595 106.787,17.8261 106.5,20C 106.354,22.0342 107.02,23.7009 108.5,25C 107.552,25.4828 106.552,25.6495 105.5,25.5C 105.313,23.4357 104.813,21.4357 104,19.5C 102.84,21.797 101.84,21.4637 101,18.5C 100.888,21.4471 99.3882,22.7804 96.5,22.5C 97.1995,18.2022 97.5328,13.8689 97.5,9.5C 99.7659,9.14118 101.599,9.80784 103,11.5C 103.483,10.552 103.649,9.55198 103.5,8.5 Z"/></g>
<g><path style="opacity:1" fill="#e4be25" d="M 73.5,8.5 C 74.9432,9.33507 75.9432,10.6684 76.5,12.5C 79.4478,7.22893 81.2811,7.56227 82,13.5C 80.8333,14.6667 79.6667,15.8333 78.5,17C 82.1287,18.9702 85.462,21.3036 88.5,24C 88.1667,24.5 87.8333,25 87.5,25.5C 84.1667,23.8333 80.8333,22.1667 77.5,20.5C 76.5344,22.396 76.2011,24.396 76.5,26.5C 75.5,26.5 74.5,26.5 73.5,26.5C 73.59,24.3037 73.9233,22.137 74.5,20C 73.4743,16.7233 72.141,13.5566 70.5,10.5C 71.6016,9.82434 72.6016,9.15767 73.5,8.5 Z"/></g>
<g><path style="opacity:1" fill="#f4c613" d="M 50.5,9.5 C 63.1683,8.03069 65.835,12.364 58.5,22.5C 59.2234,24.7822 59.5567,27.1155 59.5,29.5C 58.1779,29.67 57.0113,29.3366 56,28.5C 54.0817,22.315 50.915,16.9816 46.5,12.5C 47.9014,11.4793 49.2347,10.4793 50.5,9.5 Z"/></g>
<g><path style="opacity:1" fill="#566989" d="M 55.5,13.5 C 61.1755,13.8597 61.8421,15.8597 57.5,19.5C 56.5233,17.5891 55.8567,15.5891 55.5,13.5 Z"/></g>
<g><path style="opacity:1" fill="#e3bf25" d="M 86.5,10.5 C 94.6217,9.22583 95.955,11.2258 90.5,16.5C 92.1402,16.1525 93.8068,16.6525 95.5,18C 92.5405,20.3296 89.2072,20.9963 85.5,20C 82.7533,16.5527 83.0866,13.386 86.5,10.5 Z"/></g>
<g><path style="opacity:1" fill="#34538d" d="M 87.5,12.5 C 91.193,13.2471 91.193,14.5804 87.5,16.5C 86.3744,15.1916 86.3744,13.8583 87.5,12.5 Z"/></g>
<g><path style="opacity:1" fill="#c9b53d" d="M 90.5,3.5 C 93.0131,5.01304 92.6798,6.34638 89.5,7.5C 89.1667,7.16667 88.8333,6.83333 88.5,6.5C 89.1925,5.48224 89.8592,4.48224 90.5,3.5 Z"/></g>
<g><path style="opacity:1" fill="#e8c01d" d="M 116.5,10.5 C 120.868,10.7509 123.035,13.0842 123,17.5C 124.269,16.0953 124.769,14.4286 124.5,12.5C 125.833,12.5 127.167,12.5 128.5,12.5C 127.31,17.5713 125.81,22.5713 124,27.5C 123.29,28.9733 122.124,29.6399 120.5,29.5C 120.665,26.4816 120.498,23.4816 120,20.5C 119.505,22.4727 119.338,24.4727 119.5,26.5C 118.5,26.5 117.5,26.5 116.5,26.5C 117.158,23.8445 117.825,21.1778 118.5,18.5C 118.032,15.7666 117.365,13.1 116.5,10.5 Z"/></g>
<g><path style="opacity:1" fill="#dfbd2c" d="M 66.5,15.5 C 71.9885,15.504 73.8219,18.1707 72,23.5C 67.6804,27.8891 64.5138,27.2224 62.5,21.5C 62.8662,18.7441 64.1995,16.7441 66.5,15.5 Z"/></g>
<g><path style="opacity:1" fill="#4265aa" d="M 66.5,17.5 C 67.6597,18.6114 68.993,19.6114 70.5,20.5C 66.6723,22.2523 65.3389,21.2523 66.5,17.5 Z"/></g>
<g><path style="opacity:1" fill="#565656" d="M 45.5,18.5 C 49.2156,20.2414 51.2156,23.2414 51.5,27.5C 45.1518,34.5181 39.1518,41.8515 33.5,49.5C 29.1667,49.5 24.8333,49.5 20.5,49.5C 28.4842,38.8529 36.8176,28.5195 45.5,18.5 Z"/></g>
<g><path style="opacity:1" fill="#225eaa" d="M 124.5,34.5 C 124.5,36.5 124.5,38.5 124.5,40.5C 123.833,39.1667 123.167,37.8333 122.5,36.5C 100.006,35.5025 77.3395,35.1692 54.5,35.5C 54.5,37.1667 54.5,38.8333 54.5,40.5C 54.1667,40.5 53.8333,40.5 53.5,40.5C 53.5,38.5 53.5,36.5 53.5,34.5C 77.1667,34.5 100.833,34.5 124.5,34.5 Z"/></g>
<g><path style="opacity:1" fill="#75274d" d="M 122.5,36.5 C 100.167,36.5 77.8333,36.5 55.5,36.5C 55.5,37.5 55.5,38.5 55.5,39.5C 55.5,40.8333 55.5,42.1667 55.5,43.5C 54.596,42.791 54.2627,41.791 54.5,40.5C 54.5,38.8333 54.5,37.1667 54.5,35.5C 77.3395,35.1692 100.006,35.5025 122.5,36.5 Z"/></g>
<g><path style="opacity:1" fill="#ec1b1d" d="M 122.5,36.5 C 122.5,37.5 122.5,38.5 122.5,39.5C 120.114,39.7413 118.114,39.0746 116.5,37.5C 111.833,37.5 107.167,37.5 102.5,37.5C 101.732,38.2625 101.232,39.2625 101,40.5C 100.722,39.5842 100.222,38.9175 99.5,38.5C 95.3656,37.5151 91.0323,37.1818 86.5,37.5C 85.7321,38.2625 85.2321,39.2625 85,40.5C 84.7679,39.2625 84.2679,38.2625 83.5,37.5C 75.6484,37.1746 67.9818,37.508 60.5,38.5C 59.0813,39.4511 57.4147,39.7845 55.5,39.5C 55.5,38.5 55.5,37.5 55.5,36.5C 77.8333,36.5 100.167,36.5 122.5,36.5 Z"/></g>
<g><path style="opacity:1" fill="#dfa3a3" d="M 60.5,38.5 C 67.9818,37.508 75.6484,37.1746 83.5,37.5C 83.5,39.1667 83.5,40.8333 83.5,42.5C 76.1667,42.5 68.8333,42.5 61.5,42.5C 61.7678,40.901 61.4345,39.5676 60.5,38.5 Z"/></g>
<g><path style="opacity:1" fill="#a51f25" d="M 83.5,37.5 C 84.2679,38.2625 84.7679,39.2625 85,40.5C 85.2321,39.2625 85.7321,38.2625 86.5,37.5C 86.5,39.1667 86.5,40.8333 86.5,42.5C 90.8333,42.5 95.1667,42.5 99.5,42.5C 99.5,41.1667 99.5,39.8333 99.5,38.5C 100.222,38.9175 100.722,39.5842 101,40.5C 101.232,39.2625 101.732,38.2625 102.5,37.5C 102.5,39.1667 102.5,40.8333 102.5,42.5C 107.167,42.5 111.833,42.5 116.5,42.5C 116.5,40.8333 116.5,39.1667 116.5,37.5C 118.114,39.0746 120.114,39.7413 122.5,39.5C 122.5,41.1667 122.5,42.8333 122.5,44.5C 99.9938,44.8308 77.6604,44.4974 55.5,43.5C 55.5,42.1667 55.5,40.8333 55.5,39.5C 57.4147,39.7845 59.0813,39.4511 60.5,38.5C 61.4345,39.5676 61.7678,40.901 61.5,42.5C 68.8333,42.5 76.1667,42.5 83.5,42.5C 83.5,40.8333 83.5,39.1667 83.5,37.5 Z"/></g>
<g><path style="opacity:1" fill="#e1a9a9" d="M 102.5,37.5 C 107.167,37.5 111.833,37.5 116.5,37.5C 116.5,39.1667 116.5,40.8333 116.5,42.5C 111.833,42.5 107.167,42.5 102.5,42.5C 102.5,40.8333 102.5,39.1667 102.5,37.5 Z"/></g>
<g><path style="opacity:1" fill="#e0a7a7" d="M 86.5,37.5 C 91.0323,37.1818 95.3656,37.5151 99.5,38.5C 99.5,39.8333 99.5,41.1667 99.5,42.5C 95.1667,42.5 90.8333,42.5 86.5,42.5C 86.5,40.8333 86.5,39.1667 86.5,37.5 Z"/></g>
<g><path style="opacity:1" fill="#252d63" d="M 122.5,36.5 C 123.167,37.8333 123.833,39.1667 124.5,40.5C 124.5,42.1667 124.5,43.8333 124.5,45.5C 100.833,45.5 77.1667,45.5 53.5,45.5C 53.5,43.8333 53.5,42.1667 53.5,40.5C 53.8333,40.5 54.1667,40.5 54.5,40.5C 54.2627,41.791 54.596,42.791 55.5,43.5C 77.6604,44.4974 99.9938,44.8308 122.5,44.5C 122.5,42.8333 122.5,41.1667 122.5,39.5C 122.5,38.5 122.5,37.5 122.5,36.5 Z"/></g>
<g><path style="opacity:1" fill="#3d3e41" d="M 125.5,37.5 C 125.737,36.209 125.404,35.209 124.5,34.5C 100.833,34.5 77.1667,34.5 53.5,34.5C 53.5,36.5 53.5,38.5 53.5,40.5C 53.5,42.1667 53.5,43.8333 53.5,45.5C 77.1667,45.5 100.833,45.5 124.5,45.5C 111.66,46.1667 98.6604,46.8333 85.5,47.5C 85.1373,48.1835 84.8039,48.8501 84.5,49.5C 67.5,49.5 50.5,49.5 33.5,49.5C 39.1518,41.8515 45.1518,34.5181 51.5,27.5C 52.9313,28.7804 53.5979,30.4471 53.5,32.5C 56.1667,32.1667 58.8333,31.8333 61.5,31.5C 61.3398,29.8008 61.5065,28.1341 62,26.5C 62.956,27.8941 64.2894,28.5607 66,28.5C 68.4789,27.3133 70.9789,27.3133 73.5,28.5C 76.5018,28.666 78.5018,27.3326 79.5,24.5C 82.64,26.4064 85.9734,27.7397 89.5,28.5C 89.5,26.5 89.5,24.5 89.5,22.5C 93.9587,24.5669 98.6253,26.4002 103.5,28C 106.697,28.9865 109.53,28.4865 112,26.5C 113.401,28.1922 115.234,28.8588 117.5,28.5C 117.5,29.5 117.5,30.5 117.5,31.5C 119.806,31.9926 122.139,32.3259 124.5,32.5C 125.435,28.0307 126.768,23.6973 128.5,19.5C 130.67,18.1618 132.336,16.3284 133.5,14C 134.332,13.3123 134.998,13.479 135.5,14.5C 133.863,19.3837 132.696,24.3837 132,29.5C 129.969,32.3553 127.803,35.022 125.5,37.5 Z"/></g>
</svg>
