<?xml version="1.0" encoding="UTF-8"?>
<!DOCTYPE svg PUBLIC "-//W3C//DTD SVG 1.1//EN" "http://www.w3.org/Graphics/SVG/1.1/DTD/svg11.dtd">
<svg xmlns="http://www.w3.org/2000/svg" version="1.1" width="175px" height="50px" style="shape-rendering:geometricPrecision; text-rendering:geometricPrecision; image-rendering:optimizeQuality; fill-rule:evenodd; clip-rule:evenodd" xmlns:xlink="http://www.w3.org/1999/xlink">
<g><path style="opacity:1" fill="#74a8ed" d="M 82.5,-0.5 C 86.5,-0.5 90.5,-0.5 94.5,-0.5C 94.4142,0.495904 94.7476,1.32924 95.5,2C 105.113,3.49719 114.78,4.83052 124.5,6C 127.838,7.51623 130.672,9.6829 133,12.5C 133.483,13.448 133.649,14.448 133.5,15.5C 136.936,15.9623 140.269,15.9623 143.5,15.5C 141.412,17.3356 140.079,19.6689 139.5,22.5C 138.596,23.209 138.263,24.209 138.5,25.5C 135.801,25.5339 133.301,24.8672 131,23.5C 131.102,19.0442 130.268,15.0442 128.5,11.5C 127.833,11.5 127.167,11.5 126.5,11.5C 126.5,11.1667 126.5,10.8333 126.5,10.5C 126.134,9.19054 124.801,8.19054 122.5,7.5C 112.713,6.54066 103.047,5.54066 93.5,4.5C 92.5207,3.23473 91.5207,1.9014 90.5,0.5C 89.4822,1.19251 88.4822,1.85917 87.5,2.5C 82.072,4.18184 76.4053,5.01518 70.5,5C 68.7912,6.54457 66.7912,7.3779 64.5,7.5C 58.5673,5.39366 52.5673,5.06033 46.5,6.5C 47.2297,4.95496 48.563,4.12162 50.5,4C 55.3748,3.24718 60.2081,3.41385 65,4.5C 71.0449,2.68888 76.8782,1.02222 82.5,-0.5 Z"/></g>
<g><path style="opacity:1" fill="#bde1f6" d="M 93.5,4.5 C 103.047,5.54066 112.713,6.54066 122.5,7.5C 124.801,8.19054 126.134,9.19054 126.5,10.5C 121.959,9.57234 117.459,8.57234 113,7.5C 111.731,8.90469 111.231,10.5714 111.5,12.5C 110.209,12.2627 109.209,12.596 108.5,13.5C 106.837,11.5615 106.171,9.22817 106.5,6.5C 101.622,6.17383 97.1219,7.17383 93,9.5C 92.0754,8.95349 91.2421,8.28683 90.5,7.5C 91.7701,6.71237 92.7701,5.71237 93.5,4.5 Z"/></g>
<g><path style="opacity:1" fill="#598ad1" d="M -0.5,-0.5 C 27.1667,-0.5 54.8333,-0.5 82.5,-0.5C 76.8782,1.02222 71.0449,2.68888 65,4.5C 60.2081,3.41385 55.3748,3.24718 50.5,4C 48.563,4.12162 47.2297,4.95496 46.5,6.5C 46.1667,6.5 45.8333,6.5 45.5,6.5C 43.3867,7.25626 41.3867,7.42292 39.5,7C 38.3185,9.91501 38.3185,13.0817 39.5,16.5C 36.2613,16.5871 33.2613,15.9205 30.5,14.5C 30.1667,14.5 29.8333,14.5 29.5,14.5C 25.6155,10.7741 20.9489,9.60741 15.5,11C 14.7562,12.0386 13.7562,12.5386 12.5,12.5C 9.87634,11.5058 7.20968,10.5058 4.5,9.5C 4.5,10.8333 4.5,12.1667 4.5,13.5C 5.97782,13.238 7.31116,13.5713 8.5,14.5C 6.12911,15.3368 3.79577,15.0034 1.5,13.5C 2.30937,11.9291 2.64271,10.2624 2.5,8.5C 1.5,8.5 0.5,8.5 -0.5,8.5C -0.5,5.5 -0.5,2.5 -0.5,-0.5 Z"/></g>
<g><path style="opacity:1" fill="#bde4f6" d="M 87.5,2.5 C 85.4042,4.43331 83.9042,6.76664 83,9.5C 78.7638,5.39305 73.9305,5.05972 68.5,8.5C 67.2528,10.0064 67.2528,11.5064 68.5,13C 67.2625,13.2321 66.2625,13.7321 65.5,14.5C 63.6926,9.88517 60.1926,7.2185 55,6.5C 50.538,7.48287 46.3713,9.14953 42.5,11.5C 43.075,9.5887 44.075,7.92203 45.5,6.5C 45.8333,6.5 46.1667,6.5 46.5,6.5C 52.5673,5.06033 58.5673,5.39366 64.5,7.5C 66.7912,7.3779 68.7912,6.54457 70.5,5C 76.4053,5.01518 82.072,4.18184 87.5,2.5 Z"/></g>
<g><path style="opacity:1" fill="#5487d0" d="M 94.5,-0.5 C 121.167,-0.5 147.833,-0.5 174.5,-0.5C 174.5,6.5 174.5,13.5 174.5,20.5C 173.5,20.5 172.5,20.5 171.5,20.5C 171.657,21.8734 171.49,23.2068 171,24.5C 170.722,23.5842 170.222,22.9175 169.5,22.5C 165.695,12.5977 158.695,9.09765 148.5,12C 146.767,13.1889 145.1,14.3556 143.5,15.5C 140.269,15.9623 136.936,15.9623 133.5,15.5C 133.649,14.448 133.483,13.448 133,12.5C 130.672,9.6829 127.838,7.51623 124.5,6C 114.78,4.83052 105.113,3.49719 95.5,2C 94.7476,1.32924 94.4142,0.495904 94.5,-0.5 Z"/></g>
<g><path style="opacity:1" fill="#4470af" d="M 93.5,4.5 C 92.7701,5.71237 91.7701,6.71237 90.5,7.5C 91.2421,8.28683 92.0754,8.95349 93,9.5C 97.1219,7.17383 101.622,6.17383 106.5,6.5C 106.171,9.22817 106.837,11.5615 108.5,13.5C 108.167,14.5 107.5,15.1667 106.5,15.5C 105.735,12.9039 105.401,10.2372 105.5,7.5C 104.5,7.5 103.5,7.5 102.5,7.5C 101.912,13.1458 101.246,13.4792 100.5,8.5C 99.1667,8.5 97.8333,8.5 96.5,8.5C 96.7845,10.4147 96.4511,12.0813 95.5,13.5C 94.791,12.596 93.791,12.2627 92.5,12.5C 92.3152,10.1104 90.9818,9.1104 88.5,9.5C 82.771,10.394 81.271,13.394 84,18.5C 85.6995,19.4061 87.5328,19.7394 89.5,19.5C 88.8333,20.1667 88.1667,20.8333 87.5,21.5C 84.0738,19.9239 80.7405,18.0906 77.5,16C 79.019,14.6487 80.3523,13.1487 81.5,11.5C 80.8333,10.1667 79.8333,9.16667 78.5,8.5C 77.5197,9.98138 76.353,11.3147 75,12.5C 74.51,11.2068 74.3433,9.87344 74.5,8.5C 73.0222,8.23798 71.6888,8.57131 70.5,9.5C 71.3482,11.4086 71.6816,13.4086 71.5,15.5C 69.5648,14.8505 67.5648,14.5172 65.5,14.5C 66.2625,13.7321 67.2625,13.2321 68.5,13C 67.2528,11.5064 67.2528,10.0064 68.5,8.5C 73.9305,5.05972 78.7638,5.39305 83,9.5C 83.9042,6.76664 85.4042,4.43331 87.5,2.5C 88.4822,1.85917 89.4822,1.19251 90.5,0.5C 91.5207,1.9014 92.5207,3.23473 93.5,4.5 Z"/></g>
<g><path style="opacity:1" fill="#d4b833" d="M 89.5,3.5 C 90.3764,3.36912 91.0431,3.70245 91.5,4.5C 90.084,6.1392 88.4174,6.97253 86.5,7C 87.7101,5.9609 88.7101,4.79423 89.5,3.5 Z"/></g>
<g><path style="opacity:1" fill="#a7cef1" d="M 29.5,14.5 C 29.8333,14.5 30.1667,14.5 30.5,14.5C 31.925,15.922 32.925,17.5887 33.5,19.5C 33.5,20.5 33.5,21.5 33.5,22.5C 31.4086,22.3184 29.4086,22.6518 27.5,23.5C 21.4111,17.6259 16.4111,18.4592 12.5,26C 10.5,26.6667 8.5,26.6667 6.5,26C 9.56752,13.3508 17.2342,9.51744 29.5,14.5 Z"/></g>
<g><path style="opacity:1" fill="#ebf5fd" d="M 169.5,22.5 C 169.732,26.4575 168.899,30.1242 167,33.5C 166.508,32.451 166.674,31.451 167.5,30.5C 165.133,28.6048 162.466,28.1048 159.5,29C 154.546,33.9344 150.546,33.1011 147.5,26.5C 145.293,25.3652 142.96,24.6985 140.5,24.5C 140.662,26.5273 140.495,28.5273 140,30.5C 139.503,27.854 139.336,25.1873 139.5,22.5C 140.079,19.6689 141.412,17.3356 143.5,15.5C 145.1,14.3556 146.767,13.1889 148.5,12C 158.695,9.09765 165.695,12.5977 169.5,22.5 Z"/></g>
<g><path style="opacity:1" fill="#a6cdf0" d="M 151.5,12.5 C 161.601,11.9436 166.935,16.6102 167.5,26.5C 165.473,26.6621 163.473,26.4955 161.5,26C 160.053,20.1077 156.387,18.1077 150.5,20C 148.311,23.6891 145.311,24.1891 141.5,21.5C 143.634,17.0256 146.968,14.0256 151.5,12.5 Z"/></g>
<g><path style="opacity:1" fill="#ecf5fd" d="M 29.5,14.5 C 17.2342,9.51744 9.56752,13.3508 6.5,26C 8.5,26.6667 10.5,26.6667 12.5,26C 16.4111,18.4592 21.4111,17.6259 27.5,23.5C 29.4086,22.6518 31.4086,22.3184 33.5,22.5C 33.5,21.5 33.5,20.5 33.5,19.5C 36.9828,26.5477 35.6494,32.7144 29.5,38C 28.255,38.7914 26.9217,39.2914 25.5,39.5C 22.9272,40.5552 20.2605,40.7218 17.5,40C 27.852,39.8099 33.5186,34.6432 34.5,24.5C 32.0733,24.523 29.74,25.023 27.5,26C 25.6739,31.2282 22.0072,32.8948 16.5,31C 15.7894,29.7453 14.956,28.5786 14,27.5C 12.2663,28.2489 10.433,28.7489 8.5,29C 7.78769,30.425 7.62103,31.925 8,33.5C 5.56447,29.5174 4.8978,25.184 6,20.5C 7.94615,17.5798 10.1128,14.9131 12.5,12.5C 13.7562,12.5386 14.7562,12.0386 15.5,11C 20.9489,9.60741 25.6155,10.7741 29.5,14.5 Z"/></g>
<g><path style="opacity:1" fill="#93bbe9" d="M 18.5,21.5 C 25.492,21.9757 26.8253,24.8091 22.5,30C 18.9266,30.5415 16.5932,29.0415 15.5,25.5C 16.5244,24.1482 17.5244,22.8149 18.5,21.5 Z"/></g>
<g><path style="opacity:1" fill="#3f60a6" d="M 65.5,14.5 C 62.5281,17.1604 61.8614,20.3271 63.5,24C 70.4939,25.1738 73.1606,22.3404 71.5,15.5C 72.9468,16.1342 73.6134,17.3009 73.5,19C 73.0566,20.825 72.7233,22.6583 72.5,24.5C 73.5,24.5 74.5,24.5 75.5,24.5C 75.5,22.8333 75.5,21.1667 75.5,19.5C 79.1338,20.3969 82.6338,21.7302 86,23.5C 87.0299,23.1639 87.5299,22.4972 87.5,21.5C 88.1667,20.8333 88.8333,20.1667 89.5,19.5C 94.206,19.0586 95.0394,17.3919 92,14.5C 91.1627,16.0074 89.9961,16.5074 88.5,16C 89.7051,14.6244 91.0384,13.4577 92.5,12.5C 93.791,12.2627 94.791,12.596 95.5,13.5C 95.5394,14.5832 95.8728,15.5832 96.5,16.5C 95.0499,17.8498 94.3832,19.5165 94.5,21.5C 95.8333,21.5 97.1667,21.5 98.5,21.5C 98.2254,16.7797 99.0588,16.4463 101,20.5C 101.667,19.8333 102.333,19.1667 103,18.5C 103.495,20.4727 103.662,22.4727 103.5,24.5C 104.873,24.6567 106.207,24.49 107.5,24C 104.058,21.3435 103.724,18.5102 106.5,15.5C 104.806,18.5893 105.472,21.0893 108.5,23C 113.775,23.3115 115.942,20.8115 115,15.5C 113.211,13.771 111.044,13.1043 108.5,13.5C 109.209,12.596 110.209,12.2627 111.5,12.5C 111.231,10.5714 111.731,8.90469 113,7.5C 117.459,8.57234 121.959,9.57234 126.5,10.5C 126.5,10.8333 126.5,11.1667 126.5,11.5C 127.167,11.5 127.833,11.5 128.5,11.5C 126.373,17.0034 124.706,22.67 123.5,28.5C 122.601,29.4715 121.434,30.1382 120,30.5C 117.245,29.2366 114.412,28.2366 111.5,27.5C 110.833,23.5 110.167,23.5 109.5,27.5C 104.094,26.6283 98.7609,25.4616 93.5,24C 92.0997,22.5619 90.433,21.7286 88.5,21.5C 88.8186,23.7505 88.3186,25.7505 87,27.5C 84.4728,25.903 81.8061,24.5697 79,23.5C 76.4225,26.5714 73.2558,27.2381 69.5,25.5C 66.7063,28.1003 63.873,28.1003 61,25.5C 60.5078,26.549 60.6744,27.549 61.5,28.5C 59.0293,30.0706 56.3626,31.0706 53.5,31.5C 52.2981,27.422 50.7981,23.422 49,19.5C 46.4787,18.1193 44.6454,16.1193 43.5,13.5C 43.1667,12.8333 42.8333,12.1667 42.5,11.5C 46.3713,9.14953 50.538,7.48287 55,6.5C 60.1926,7.2185 63.6926,9.88517 65.5,14.5 Z"/></g>
<g><path style="opacity:1" fill="#e8c224" d="M 65.5,14.5 C 67.5648,14.5172 69.5648,14.8505 71.5,15.5C 73.1606,22.3404 70.4939,25.1738 63.5,24C 61.8614,20.3271 62.5281,17.1604 65.5,14.5 Z"/></g>
<g><path style="opacity:1" fill="#e7bf21" d="M 126.5,11.5 C 125.242,16.9429 123.575,22.2762 121.5,27.5C 120.726,28.7112 119.893,28.7112 119,27.5C 118.667,24.8333 118.333,22.1667 118,19.5C 117.505,21.4727 117.338,23.4727 117.5,25.5C 116.5,25.5 115.5,25.5 114.5,25.5C 117.053,20.5081 117.053,15.5081 114.5,10.5C 116.195,9.70831 117.862,10.0416 119.5,11.5C 120.505,19.4833 121.505,19.4833 122.5,11.5C 123.833,11.5 125.167,11.5 126.5,11.5 Z"/></g>
<g><path style="opacity:1" fill="#e1be2b" d="M 108.5,13.5 C 111.044,13.1043 113.211,13.771 115,15.5C 115.942,20.8115 113.775,23.3115 108.5,23C 105.472,21.0893 104.806,18.5893 106.5,15.5C 107.5,15.1667 108.167,14.5 108.5,13.5 Z"/></g>
<g><path style="opacity:1" fill="#4b63ab" d="M 65.5,16.5 C 66.9559,18.4184 68.6225,19.0851 70.5,18.5C 69.3315,20.2174 67.6648,20.8841 65.5,20.5C 65.5,19.1667 65.5,17.8333 65.5,16.5 Z"/></g>
<g><path style="opacity:1" fill="#4363ae" d="M 108.5,15.5 C 109.735,15.7214 110.735,16.3881 111.5,17.5C 113.127,16.0811 113.627,16.4144 113,18.5C 109.85,20.1612 108.35,19.1612 108.5,15.5 Z"/></g>
<g><path style="opacity:1" fill="#e7c222" d="M 92.5,12.5 C 91.0384,13.4577 89.7051,14.6244 88.5,16C 89.9961,16.5074 91.1627,16.0074 92,14.5C 95.0394,17.3919 94.206,19.0586 89.5,19.5C 87.5328,19.7394 85.6995,19.4061 84,18.5C 81.271,13.394 82.771,10.394 88.5,9.5C 90.9818,9.1104 92.3152,10.1104 92.5,12.5 Z"/></g>
<g><path style="opacity:1" fill="#5778c3" d="M 86.5,11.5 C 90.193,12.2471 90.193,13.5804 86.5,15.5C 85.3744,14.1916 85.3744,12.8583 86.5,11.5 Z"/></g>
<g><path style="opacity:1" fill="#edc11a" d="M 106.5,15.5 C 103.724,18.5102 104.058,21.3435 107.5,24C 106.207,24.49 104.873,24.6567 103.5,24.5C 103.662,22.4727 103.495,20.4727 103,18.5C 102.333,19.1667 101.667,19.8333 101,20.5C 99.0588,16.4463 98.2254,16.7797 98.5,21.5C 97.1667,21.5 95.8333,21.5 94.5,21.5C 94.3832,19.5165 95.0499,17.8498 96.5,16.5C 95.8728,15.5832 95.5394,14.5832 95.5,13.5C 96.4511,12.0813 96.7845,10.4147 96.5,8.5C 97.8333,8.5 99.1667,8.5 100.5,8.5C 101.246,13.4792 101.912,13.1458 102.5,7.5C 103.5,7.5 104.5,7.5 105.5,7.5C 105.401,10.2372 105.735,12.9039 106.5,15.5 Z"/></g>
<g><path style="opacity:1" fill="#eec41b" d="M 87.5,21.5 C 87.5299,22.4972 87.0299,23.1639 86,23.5C 82.6338,21.7302 79.1338,20.3969 75.5,19.5C 75.5,21.1667 75.5,22.8333 75.5,24.5C 74.5,24.5 73.5,24.5 72.5,24.5C 72.7233,22.6583 73.0566,20.825 73.5,19C 73.6134,17.3009 72.9468,16.1342 71.5,15.5C 71.6816,13.4086 71.3482,11.4086 70.5,9.5C 71.6888,8.57131 73.0222,8.23798 74.5,8.5C 74.3433,9.87344 74.51,11.2068 75,12.5C 76.353,11.3147 77.5197,9.98138 78.5,8.5C 79.8333,9.16667 80.8333,10.1667 81.5,11.5C 80.3523,13.1487 79.019,14.6487 77.5,16C 80.7405,18.0906 84.0738,19.9239 87.5,21.5 Z"/></g>
<g><path style="opacity:1" fill="#efc419" d="M 50.5,8.5 C 53.5184,8.33537 56.5184,8.50204 59.5,9C 63.5523,13.5169 62.8856,17.5169 57.5,21C 58.5541,23.3822 59.2208,25.8822 59.5,28.5C 58.1779,28.67 57.0113,28.3366 56,27.5C 54.2559,23.4232 52.4226,19.4232 50.5,15.5C 45.1699,13.1742 45.1699,10.8409 50.5,8.5 Z"/></g>
<g><path style="opacity:1" fill="#5b74af" d="M 55.5,12.5 C 59.0714,12.4077 60.2381,14.0743 59,17.5C 58.586,17.9574 58.086,18.2907 57.5,18.5C 55.9137,16.8273 55.2471,14.8273 55.5,12.5 Z"/></g>
<g><path style="opacity:1" fill="#e3f6fa" d="M 43.5,13.5 C 44.6454,16.1193 46.4787,18.1193 49,19.5C 50.7981,23.422 52.2981,27.422 53.5,31.5C 56.3626,31.0706 59.0293,30.0706 61.5,28.5C 60.6744,27.549 60.5078,26.549 61,25.5C 63.873,28.1003 66.7063,28.1003 69.5,25.5C 73.2558,27.2381 76.4225,26.5714 79,23.5C 81.8061,24.5697 84.4728,25.903 87,27.5C 88.3186,25.7505 88.8186,23.7505 88.5,21.5C 90.433,21.7286 92.0997,22.5619 93.5,24C 98.7609,25.4616 104.094,26.6283 109.5,27.5C 110.167,23.5 110.833,23.5 111.5,27.5C 114.412,28.2366 117.245,29.2366 120,30.5C 121.434,30.1382 122.601,29.4715 123.5,28.5C 123.414,29.4959 123.748,30.3292 124.5,31C 122.91,32.0458 121.41,33.2125 120,34.5C 120.24,40.6339 118.073,45.6339 113.5,49.5C 97.8333,49.5 82.1667,49.5 66.5,49.5C 62.7159,48.0198 58.7159,46.6865 54.5,45.5C 53.6747,41.8776 53.1747,38.211 53,34.5C 51.207,31.9383 49.707,29.2716 48.5,26.5C 47.1798,23.1943 45.3465,20.1943 43,17.5C 42.235,15.9343 42.4017,14.6009 43.5,13.5 Z"/></g>
<g><path style="opacity:1" fill="#95c0ed" d="M 45.5,6.5 C 44.075,7.92203 43.075,9.5887 42.5,11.5C 42.8333,12.1667 43.1667,12.8333 43.5,13.5C 42.4017,14.6009 42.235,15.9343 43,17.5C 45.3465,20.1943 47.1798,23.1943 48.5,26.5C 48.5683,30.1054 49.5683,33.4388 51.5,36.5C 50.9537,38.1347 50.6204,39.8014 50.5,41.5C 42.6918,42.0611 34.8585,42.0611 27,41.5C 25.9701,41.1639 25.4701,40.4972 25.5,39.5C 26.9217,39.2914 28.255,38.7914 29.5,38C 35.6494,32.7144 36.9828,26.5477 33.5,19.5C 32.925,17.5887 31.925,15.922 30.5,14.5C 33.2613,15.9205 36.2613,16.5871 39.5,16.5C 38.3185,13.0817 38.3185,9.91501 39.5,7C 41.3867,7.42292 43.3867,7.25626 45.5,6.5 Z"/></g>
<g><path style="opacity:1" fill="#264582" d="M 59.5,32.5 C 63.5869,33.001 67.5869,33.001 71.5,32.5C 73.374,32.3898 74.874,33.0564 76,34.5C 77.126,33.0564 78.626,32.3898 80.5,32.5C 86.6405,33.3066 92.6405,33.3066 98.5,32.5C 100.029,32.5288 101.196,33.1955 102,34.5C 102.804,33.1955 103.971,32.5288 105.5,32.5C 107.79,33.5413 110.124,33.5413 112.5,32.5C 114.955,32.112 116.288,33.112 116.5,35.5C 116.182,36.6473 115.516,37.4806 114.5,38C 115.982,40.5918 115.648,42.9251 113.5,45C 109.136,44.4819 104.802,44.6485 100.5,45.5C 97.9886,45.712 95.8219,45.0454 94,43.5C 92.5618,44.7185 90.8951,45.3852 89,45.5C 85.2455,45.2105 81.5788,45.2105 78,45.5C 76.7387,45.2409 75.7387,44.5742 75,43.5C 70.6387,46.5609 66.972,45.8942 64,41.5C 62.3333,42.8333 60.6667,44.1667 59,45.5C 57.1147,45.1379 56.2814,43.9713 56.5,42C 57.2082,38.7103 58.2082,35.5436 59.5,32.5 Z"/></g>
<g><path style="opacity:1" fill="#d0d5e0" d="M 68.5,34.5 C 76.0939,34.2623 77.4273,37.0956 72.5,43C 66.9202,44.261 65.0868,42.0943 67,36.5C 67.7172,35.9558 68.2172,35.2891 68.5,34.5 Z"/></g>
<g><path style="opacity:1" fill="#334d88" d="M 70.5,35.5 C 72.3079,36.9179 72.9746,38.9179 72.5,41.5C 71.1667,41.5 69.8333,41.5 68.5,41.5C 68.2525,39.1417 68.9192,37.1417 70.5,35.5 Z"/></g>
<g><path style="opacity:1" fill="#a9cdf1" d="M 128.5,11.5 C 130.268,15.0442 131.102,19.0442 131,23.5C 133.301,24.8672 135.801,25.5339 138.5,25.5C 138.263,24.209 138.596,23.209 139.5,22.5C 139.336,25.1873 139.503,27.854 140,30.5C 140.495,28.5273 140.662,26.5273 140.5,24.5C 142.96,24.6985 145.293,25.3652 147.5,26.5C 150.546,33.1011 154.546,33.9344 159.5,29C 162.466,28.1048 165.133,28.6048 167.5,30.5C 166.674,31.451 166.508,32.451 167,33.5C 168.899,30.1242 169.732,26.4575 169.5,22.5C 170.222,22.9175 170.722,23.5842 171,24.5C 171.49,23.2068 171.657,21.8734 171.5,20.5C 172.5,20.5 173.5,20.5 174.5,20.5C 174.5,30.1667 174.5,39.8333 174.5,49.5C 154.167,49.5 133.833,49.5 113.5,49.5C 118.073,45.6339 120.24,40.6339 120,34.5C 121.41,33.2125 122.91,32.0458 124.5,31C 123.748,30.3292 123.414,29.4959 123.5,28.5C 124.706,22.67 126.373,17.0034 128.5,11.5 Z"/></g>
<g><path style="opacity:1" fill="#94bce9" d="M 152.5,21.5 C 157.494,21.329 159.328,23.6624 158,28.5C 153.791,31.5965 150.958,30.5965 149.5,25.5C 149.787,23.5567 150.787,22.2233 152.5,21.5 Z"/></g>
<g><path style="opacity:1" fill="#ced2de" d="M 87.5,34.5 C 88.3764,34.3691 89.0431,34.7025 89.5,35.5C 88.6518,37.4086 88.3184,39.4086 88.5,41.5C 89.5,41.5 90.5,41.5 91.5,41.5C 91.162,38.8431 91.8287,36.5098 93.5,34.5C 95.2263,40.6522 92.8929,43.6522 86.5,43.5C 86.2641,40.3915 86.5975,37.3915 87.5,34.5 Z"/></g>
<g><path style="opacity:1" fill="#eceef2" d="M 59.5,34.5 C 61.5273,34.3379 63.5273,34.5045 65.5,35C 64.2068,35.49 62.8734,35.6567 61.5,35.5C 61.5,36.5 61.5,37.5 61.5,38.5C 65.1716,39.0447 64.8383,39.3781 60.5,39.5C 60.762,40.9778 60.4287,42.3112 59.5,43.5C 59.1667,43 58.8333,42.5 58.5,42C 59.3223,39.5661 59.6556,37.0661 59.5,34.5 Z"/></g>
<g><path style="opacity:1" fill="#d0d4e0" d="M 78.5,34.5 C 80.4672,34.2606 82.3005,34.5939 84,35.5C 83.1263,38.1908 82.6263,40.8575 82.5,43.5C 81.0948,40.1482 79.7615,39.9815 78.5,43C 77.6683,43.6877 77.0016,43.521 76.5,42.5C 77.2951,39.8556 77.9618,37.1889 78.5,34.5 Z"/></g>
<g><path style="opacity:1" fill="#d7dae4" d="M 97.5,34.5 C 98.5,34.5 99.5,34.5 100.5,34.5C 100.338,36.5273 100.505,38.5273 101,40.5C 101.782,37.9242 103.282,35.9242 105.5,34.5C 106.807,37.6626 106.474,40.6626 104.5,43.5C 103.749,42.624 103.249,41.624 103,40.5C 101.447,44.2991 100.114,44.2991 99,40.5C 98.4921,42.9042 97.3255,43.5709 95.5,42.5C 96.2951,39.8556 96.9618,37.1889 97.5,34.5 Z"/></g>
<g><path style="opacity:1" fill="#9ec6ef" d="M -0.5,8.5 C 0.5,8.5 1.5,8.5 2.5,8.5C 2.64271,10.2624 2.30937,11.9291 1.5,13.5C 3.79577,15.0034 6.12911,15.3368 8.5,14.5C 7.31116,13.5713 5.97782,13.238 4.5,13.5C 4.5,12.1667 4.5,10.8333 4.5,9.5C 7.20968,10.5058 9.87634,11.5058 12.5,12.5C 10.1128,14.9131 7.94615,17.5798 6,20.5C 4.8978,25.184 5.56447,29.5174 8,33.5C 7.62103,31.925 7.78769,30.425 8.5,29C 10.433,28.7489 12.2663,28.2489 14,27.5C 14.956,28.5786 15.7894,29.7453 16.5,31C 22.0072,32.8948 25.6739,31.2282 27.5,26C 29.74,25.023 32.0733,24.523 34.5,24.5C 33.5186,34.6432 27.852,39.8099 17.5,40C 20.2605,40.7218 22.9272,40.5552 25.5,39.5C 25.4701,40.4972 25.9701,41.1639 27,41.5C 34.8585,42.0611 42.6918,42.0611 50.5,41.5C 50.6204,39.8014 50.9537,38.1347 51.5,36.5C 49.5683,33.4388 48.5683,30.1054 48.5,26.5C 49.707,29.2716 51.207,31.9383 53,34.5C 53.1747,38.211 53.6747,41.8776 54.5,45.5C 58.7159,46.6865 62.7159,48.0198 66.5,49.5C 44.1667,49.5 21.8333,49.5 -0.5,49.5C -0.5,35.8333 -0.5,22.1667 -0.5,8.5 Z"/></g>
<g><path style="opacity:1" fill="#cdd2de" d="M 110.5,34.5 C 115.041,34.3309 115.374,34.9975 111.5,36.5C 116.198,42.3913 114.864,44.3913 107.5,42.5C 109.078,41.7022 110.744,41.2022 112.5,41C 109.679,39.3787 109.013,37.212 110.5,34.5 Z"/></g>
</svg>
