<?xml version="1.0" encoding="UTF-8"?>
<!DOCTYPE svg PUBLIC "-//W3C//DTD SVG 1.1//EN" "http://www.w3.org/Graphics/SVG/1.1/DTD/svg11.dtd">
<svg xmlns="http://www.w3.org/2000/svg" version="1.1" width="175px" height="50px" style="shape-rendering:geometricPrecision; text-rendering:geometricPrecision; image-rendering:optimizeQuality; fill-rule:evenodd; clip-rule:evenodd" xmlns:xlink="http://www.w3.org/1999/xlink">
<g><path style="opacity:1" fill="#ba292e" d="M -0.5,-0.5 C 13.1667,-0.5 26.8333,-0.5 40.5,-0.5C 41.6253,1.12879 42.9586,2.62879 44.5,4C 42.9419,4.21003 41.6085,4.71003 40.5,5.5C 40.4142,6.4959 40.7476,7.32924 41.5,8C 40.5842,8.27842 39.9175,8.77842 39.5,9.5C 33.0698,8.05368 26.7364,8.38702 20.5,10.5C 20.573,8.97306 19.9063,7.97306 18.5,7.5C 18.5,6.5 18.5,5.5 18.5,4.5C 14.8815,3.75638 11.2148,3.42305 7.5,3.5C 7.5,2.5 7.5,1.5 7.5,0.5C 4.76275,0.401319 2.09609,0.734653 -0.5,1.5C -0.5,0.833333 -0.5,0.166667 -0.5,-0.5 Z"/></g>
<g><path style="opacity:1" fill="#b9292d" d="M 52.5,-0.5 C 63.8333,-0.5 75.1667,-0.5 86.5,-0.5C 86.5,6.5 86.5,13.5 86.5,20.5C 85.8485,19.9094 85.1818,19.2427 84.5,18.5C 83.914,18.7093 83.414,19.0426 83,19.5C 82.51,18.2068 82.3433,16.8734 82.5,15.5C 82.4863,13.2895 82.1529,10.9562 81.5,8.5C 80.5539,8.01328 79.5539,7.67994 78.5,7.5C 76.8953,8.43031 75.3953,8.43031 74,7.5C 72.3567,8.512 71.19,9.512 70.5,10.5C 65.2491,8.27885 59.9158,7.94551 54.5,9.5C 51.5693,9.08968 50.9026,7.75635 52.5,5.5C 51.6016,4.84233 50.6016,4.17566 49.5,3.5C 50.5244,2.14819 51.5244,0.814858 52.5,-0.5 Z"/></g>
<g><path style="opacity:1" fill="#7c3884" d="M 91.5,-0.5 C 93.5,-0.5 95.5,-0.5 97.5,-0.5C 97.5,2.16667 97.5,4.83333 97.5,7.5C 95.4862,7.39151 93.8195,8.05817 92.5,9.5C 91.5863,6.27203 91.2529,2.93869 91.5,-0.5 Z"/></g>
<g><path style="opacity:1" fill="#7c3983" d="M 152.5,-0.5 C 156.833,-0.5 161.167,-0.5 165.5,-0.5C 164.963,4.7388 165.63,9.7388 167.5,14.5C 166.753,14.7365 165.92,15.0698 165,15.5C 164.79,17.0581 164.29,18.3915 163.5,19.5C 163.319,16.6029 163.652,13.7695 164.5,11C 164.241,9.73869 163.574,8.73869 162.5,8C 159.122,7.95247 155.789,8.45247 152.5,9.5C 152.5,6.16667 152.5,2.83333 152.5,-0.5 Z"/></g>
<g><path style="opacity:1" fill="#ba2c2a" d="M 40.5,-0.5 C 44.5,-0.5 48.5,-0.5 52.5,-0.5C 51.5244,0.814858 50.5244,2.14819 49.5,3.5C 50.6016,4.17566 51.6016,4.84233 52.5,5.5C 48.5,4.16667 44.5,4.16667 40.5,5.5C 41.6085,4.71003 42.9419,4.21003 44.5,4C 42.9586,2.62879 41.6253,1.12879 40.5,-0.5 Z"/></g>
<g><path style="opacity:1" fill="#7c3882" d="M 97.5,-0.5 C 99.8333,-0.5 102.167,-0.5 104.5,-0.5C 104.5,2.83333 104.5,6.16667 104.5,9.5C 101.933,9.27852 99.5994,8.61185 97.5,7.5C 97.5,4.83333 97.5,2.16667 97.5,-0.5 Z"/></g>
<g><path style="opacity:1" fill="#783583" d="M 104.5,-0.5 C 106.833,-0.5 109.167,-0.5 111.5,-0.5C 111.736,2.60853 111.403,5.60853 110.5,8.5C 109.448,8.35055 108.448,8.51722 107.5,9C 108.888,9.88934 108.722,10.3893 107,10.5C 106.098,10.2568 105.265,9.92342 104.5,9.5C 104.5,6.16667 104.5,2.83333 104.5,-0.5 Z"/></g>
<g><path style="opacity:1" fill="#7e3984" d="M 136.5,-0.5 C 140.167,-0.5 143.833,-0.5 147.5,-0.5C 147.5,2.5 147.5,5.5 147.5,8.5C 144.428,8.18749 141.595,8.85416 139,10.5C 138.645,9.49095 137.812,8.82428 136.5,8.5C 136.5,5.5 136.5,2.5 136.5,-0.5 Z"/></g>
<g><path style="opacity:1" fill="#bd272e" d="M 7.5,3.5 C 11.2148,3.42305 14.8815,3.75638 18.5,4.5C 18.5,5.5 18.5,6.5 18.5,7.5C 17.0267,8.07145 15.36,8.07145 13.5,7.5C 12.828,6.73261 11.9947,6.06594 11,5.5C 8.43028,6.00903 6.09694,7.00903 4,8.5C 2.83333,7.33333 1.66667,6.16667 0.5,5C 2.91319,3.65393 5.24652,3.15393 7.5,3.5 Z"/></g>
<g><path style="opacity:1" fill="#7b3883" d="M 111.5,-0.5 C 114.5,-0.5 117.5,-0.5 120.5,-0.5C 121.541,2.45777 121.541,5.45777 120.5,8.5C 119.448,8.35055 118.448,8.51722 117.5,9C 118.956,9.42258 119.456,10.2559 119,11.5C 117.254,9.54327 115.088,8.54327 112.5,8.5C 111.833,8.5 111.167,8.5 110.5,8.5C 111.403,5.60853 111.736,2.60853 111.5,-0.5 Z"/></g>
<g><path style="opacity:1" fill="#7f3c82" d="M 120.5,-0.5 C 125.833,-0.5 131.167,-0.5 136.5,-0.5C 136.5,2.5 136.5,5.5 136.5,8.5C 136.158,9.33825 135.492,9.67158 134.5,9.5C 134.5,8.16667 134.5,6.83333 134.5,5.5C 132.857,5.48015 131.524,6.14682 130.5,7.5C 129.167,4.83333 127.833,4.83333 126.5,7.5C 125.476,6.14682 124.143,5.48015 122.5,5.5C 122.5,6.83333 122.5,8.16667 122.5,9.5C 121.508,9.67158 120.842,9.33825 120.5,8.5C 121.541,5.45777 121.541,2.45777 120.5,-0.5 Z"/></g>
<g><path style="opacity:1" fill="#783683" d="M 147.5,-0.5 C 149.167,-0.5 150.833,-0.5 152.5,-0.5C 152.5,2.83333 152.5,6.16667 152.5,9.5C 152.5,9.83333 152.5,10.1667 152.5,10.5C 151.127,10.6567 149.793,10.49 148.5,10C 149.712,8.89318 149.379,8.39318 147.5,8.5C 147.5,5.5 147.5,2.5 147.5,-0.5 Z"/></g>
<g><path style="opacity:1" fill="#b7282e" d="M 7.5,3.5 C 5.24652,3.15393 2.91319,3.65393 0.5,5C 1.66667,6.16667 2.83333,7.33333 4,8.5C 6.09694,7.00903 8.43028,6.00903 11,5.5C 11.9947,6.06594 12.828,6.73261 13.5,7.5C 11.0246,8.6874 10.0246,10.6874 10.5,13.5C 9.71679,11.9242 8.55012,10.5908 7,9.5C 4.84248,11.4944 2.34248,12.8277 -0.5,13.5C -0.5,9.5 -0.5,5.5 -0.5,1.5C 2.09609,0.734653 4.76275,0.401319 7.5,0.5C 7.5,1.5 7.5,2.5 7.5,3.5 Z"/></g>
<g><path style="opacity:1" fill="#cab124" d="M 134.5,9.5 C 133.833,9.83333 133.167,10.1667 132.5,10.5C 132.214,8.06732 131.548,8.06732 130.5,10.5C 128.171,11.7489 126.338,11.0823 125,8.5C 124.658,10.6192 123.825,10.9526 122.5,9.5C 122.5,8.16667 122.5,6.83333 122.5,5.5C 124.143,5.48015 125.476,6.14682 126.5,7.5C 127.833,4.83333 129.167,4.83333 130.5,7.5C 131.524,6.14682 132.857,5.48015 134.5,5.5C 134.5,6.83333 134.5,8.16667 134.5,9.5 Z"/></g>
<g><path style="opacity:1" fill="#ba7323" d="M 82.5,15.5 C 81.1224,16.5451 80.1224,17.8784 79.5,19.5C 78.596,18.791 78.2627,17.791 78.5,16.5C 75.4723,14.4936 72.1389,13.1603 68.5,12.5C 64.3656,11.5151 60.0323,11.1818 55.5,11.5C 54.6618,11.1583 54.3284,10.4916 54.5,9.5C 59.9158,7.94551 65.2491,8.27885 70.5,10.5C 71.19,9.512 72.3567,8.512 74,7.5C 75.3953,8.43031 76.8953,8.43031 78.5,7.5C 79.5539,7.67994 80.5539,8.01328 81.5,8.5C 82.1529,10.9562 82.4863,13.2895 82.5,15.5 Z"/></g>
<g><path style="opacity:1" fill="#b2282e" d="M 10.5,13.5 C 11.1667,13.5 11.5,13.8333 11.5,14.5C 10.5655,15.5676 10.2322,16.901 10.5,18.5C 9.50838,18.3284 8.84171,18.6618 8.5,19.5C 5.59388,18.2134 2.59388,17.2134 -0.5,16.5C -0.5,15.5 -0.5,14.5 -0.5,13.5C 2.34248,12.8277 4.84248,11.4944 7,9.5C 8.55012,10.5908 9.71679,11.9242 10.5,13.5 Z"/></g>
<g><path style="opacity:1" fill="#a0764a" d="M 97.5,7.5 C 99.5994,8.61185 101.933,9.27852 104.5,9.5C 105.265,9.92342 106.098,10.2568 107,10.5C 108.722,10.3893 108.888,9.88934 107.5,9C 108.448,8.51722 109.448,8.35055 110.5,8.5C 111.167,8.5 111.833,8.5 112.5,8.5C 112.389,9.11742 112.056,9.61742 111.5,10C 112.416,10.2784 113.082,10.7784 113.5,11.5C 111.167,11.5 108.833,11.5 106.5,11.5C 102.807,11.1857 100.473,12.8523 99.5,16.5C 100.577,17.7051 101.91,18.3718 103.5,18.5C 101.928,19.6873 100.261,20.6873 98.5,21.5C 98.1667,21.5 97.8333,21.5 97.5,21.5C 95.5443,20.8779 94.211,19.5446 93.5,17.5C 92.7308,14.8853 92.3975,12.2186 92.5,9.5C 93.8195,8.05817 95.4862,7.39151 97.5,7.5 Z"/></g>
<g><path style="opacity:1" fill="#996a56" d="M 112.5,8.5 C 115.088,8.54327 117.254,9.54327 119,11.5C 119.456,10.2559 118.956,9.42258 117.5,9C 118.448,8.51722 119.448,8.35055 120.5,8.5C 120.842,9.33825 121.508,9.67158 122.5,9.5C 123.825,10.9526 124.658,10.6192 125,8.5C 126.338,11.0823 128.171,11.7489 130.5,10.5C 130.5,11.8333 130.5,13.1667 130.5,14.5C 129.167,14.5 127.833,14.5 126.5,14.5C 125.721,12.0728 124.554,12.0728 123,14.5C 120.772,12.8866 118.272,12.22 115.5,12.5C 115.158,11.6618 114.492,11.3284 113.5,11.5C 113.082,10.7784 112.416,10.2784 111.5,10C 112.056,9.61742 112.389,9.11742 112.5,8.5 Z"/></g>
<g><path style="opacity:1" fill="#9b6e52" d="M 136.5,8.5 C 137.812,8.82428 138.645,9.49095 139,10.5C 141.595,8.85416 144.428,8.18749 147.5,8.5C 149.379,8.39318 149.712,8.89318 148.5,10C 149.793,10.49 151.127,10.6567 152.5,10.5C 153.791,10.2627 154.791,10.596 155.5,11.5C 153.833,11.5 152.167,11.5 150.5,11.5C 145.63,11.6896 140.964,12.3563 136.5,13.5C 133.936,15.2908 132.269,14.6241 131.5,11.5C 131.624,10.8933 131.957,10.56 132.5,10.5C 133.167,10.1667 133.833,9.83333 134.5,9.5C 135.492,9.67158 136.158,9.33825 136.5,8.5 Z"/></g>
<g><path style="opacity:1" fill="#a07848" d="M 163.5,19.5 C 161.952,19.8212 161.285,20.8212 161.5,22.5C 160.614,24.7216 160.614,26.8882 161.5,29C 161.333,29.5 161.167,30 161,30.5C 160.722,29.5842 160.222,28.9175 159.5,28.5C 158.421,26.9194 158.421,25.2527 159.5,23.5C 159.253,22.2867 158.586,21.62 157.5,21.5C 156.167,20.5 154.833,19.5 153.5,18.5C 157.789,18.2558 158.456,16.5891 155.5,13.5C 157.925,12.3507 157.925,11.684 155.5,11.5C 154.791,10.596 153.791,10.2627 152.5,10.5C 152.5,10.1667 152.5,9.83333 152.5,9.5C 155.789,8.45247 159.122,7.95247 162.5,8C 163.574,8.73869 164.241,9.73869 164.5,11C 163.652,13.7695 163.319,16.6029 163.5,19.5 Z"/></g>
<g><path style="opacity:1" fill="#bc7126" d="M 13.5,7.5 C 15.36,8.07145 17.0267,8.07145 18.5,7.5C 19.9063,7.97306 20.573,8.97306 20.5,10.5C 17.6439,12.0934 14.6439,13.4267 11.5,14.5C 11.5,13.8333 11.1667,13.5 10.5,13.5C 10.0246,10.6874 11.0246,8.6874 13.5,7.5 Z"/></g>
<g><path style="opacity:1" fill="#bc7023" d="M 52.5,5.5 C 50.9026,7.75635 51.5693,9.08968 54.5,9.5C 54.3284,10.4916 54.6618,11.1583 55.5,11.5C 52.7093,15.4245 50.376,15.0912 48.5,10.5C 49.4461,6.64034 47.9461,5.64034 44,7.5C 43.5304,8.57683 43.6971,9.57683 44.5,10.5C 43.1606,14.1998 41.1606,14.8665 38.5,12.5C 41.5051,11.6247 41.8384,10.6247 39.5,9.5C 39.9175,8.77842 40.5842,8.27842 41.5,8C 40.7476,7.32924 40.4142,6.4959 40.5,5.5C 44.5,4.16667 48.5,4.16667 52.5,5.5 Z"/></g>
<g><path style="opacity:1" fill="#c8a919" d="M 48.5,10.5 C 47.7321,11.2625 47.2321,12.2625 47,13.5C 46.6232,12.0577 45.7899,11.0577 44.5,10.5C 43.6971,9.57683 43.5304,8.57683 44,7.5C 47.9461,5.64034 49.4461,6.64034 48.5,10.5 Z"/></g>
<g><path style="opacity:1" fill="#bb7822" d="M 39.5,9.5 C 41.8384,10.6247 41.5051,11.6247 38.5,12.5C 33.7019,11.256 29.0352,11.256 24.5,12.5C 23.2502,12.5774 22.4169,13.244 22,14.5C 21.6924,13.6919 21.1924,13.0253 20.5,12.5C 19.4717,14.3615 17.9717,15.6948 16,16.5C 15.2204,18.3869 15.3871,20.0536 16.5,21.5C 15.8902,22.391 15.5569,23.391 15.5,24.5C 14.2947,25.6719 14.2947,27.0052 15.5,28.5C 14.3061,29.6704 13.6395,29.337 13.5,27.5C 12.9054,24.6537 12.9054,21.6537 13.5,18.5C 12.5,18.5 11.5,18.5 10.5,18.5C 10.2322,16.901 10.5655,15.5676 11.5,14.5C 14.6439,13.4267 17.6439,12.0934 20.5,10.5C 26.7364,8.38702 33.0698,8.05368 39.5,9.5 Z"/></g>
<g><path style="opacity:1" fill="#702f85" d="M 87.5,-0.5 C 88.1667,-0.5 88.8333,-0.5 89.5,-0.5C 89.4412,6.03919 89.1078,12.0392 88.5,17.5C 89.1667,23.8333 89.8333,30.1667 90.5,36.5C 88.5213,38.2637 88.188,40.2637 89.5,42.5C 90.4168,41.8728 91.4168,41.5394 92.5,41.5C 92.5,41.8333 92.5,42.1667 92.5,42.5C 91.9033,42.7352 91.5699,43.2352 91.5,44C 92.6274,45.0567 93.1274,46.2234 93,47.5C 91.4933,46.4954 90.3267,45.162 89.5,43.5C 88.8243,44.6016 88.1577,45.6016 87.5,46.5C 87.5,30.8333 87.5,15.1667 87.5,-0.5 Z"/></g>
<g><path style="opacity:1" fill="#b12b2f" d="M 48.5,10.5 C 50.376,15.0912 52.7093,15.4245 55.5,11.5C 60.0323,11.1818 64.3656,11.5151 68.5,12.5C 68.5,12.8333 68.5,13.1667 68.5,13.5C 67.4138,13.62 66.7472,14.2867 66.5,15.5C 67.0431,16.8638 67.2098,18.1971 67,19.5C 65.6439,18.6198 64.1439,18.2865 62.5,18.5C 60.0971,18.448 57.7638,18.7814 55.5,19.5C 55.5,19.1667 55.5,18.8333 55.5,18.5C 53.6112,17.2584 51.6112,17.2584 49.5,18.5C 49.5637,17.4205 49.0637,16.4205 48,15.5C 46.9889,16.0556 46.1556,16.7222 45.5,17.5C 45.5858,16.5041 45.2524,15.6708 44.5,15C 45.7932,14.51 47.1266,14.3433 48.5,14.5C 48.5,13.1667 48.5,11.8333 48.5,10.5 Z"/></g>
<g><path style="opacity:1" fill="#763883" d="M 109.5,12.5 C 111.5,12.5 113.5,12.5 115.5,12.5C 118.272,12.22 120.772,12.8866 123,14.5C 124.554,12.0728 125.721,12.0728 126.5,14.5C 127.091,15.1515 127.757,15.8182 128.5,16.5C 125.628,17.7825 122.795,17.7825 120,16.5C 119.506,18.1341 119.34,19.8008 119.5,21.5C 118.833,21.8333 118.167,22.1667 117.5,22.5C 117.67,21.1779 117.337,20.0113 116.5,19C 114.455,18.5099 112.455,18.6765 110.5,19.5C 111.66,17.7973 110.993,17.1307 108.5,17.5C 108.629,15.7839 108.962,14.1172 109.5,12.5 Z"/></g>
<g><path style="opacity:1" fill="#b32f2d" d="M 44.5,10.5 C 45.7899,11.0577 46.6232,12.0577 47,13.5C 47.2321,12.2625 47.7321,11.2625 48.5,10.5C 48.5,11.8333 48.5,13.1667 48.5,14.5C 47.1266,14.3433 45.7932,14.51 44.5,15C 45.2524,15.6708 45.5858,16.5041 45.5,17.5C 45.5,18.1667 45.1667,18.5 44.5,18.5C 44.1667,18.5 43.8333,18.5 43.5,18.5C 38.9019,17.0078 34.2352,16.6745 29.5,17.5C 27.8333,16.1667 26.1667,14.8333 24.5,13.5C 24.5,13.1667 24.5,12.8333 24.5,12.5C 29.0352,11.256 33.7019,11.256 38.5,12.5C 41.1606,14.8665 43.1606,14.1998 44.5,10.5 Z"/></g>
<g><path style="opacity:1" fill="#c9b123" d="M 150.5,11.5 C 152.167,11.5 153.833,11.5 155.5,11.5C 157.925,11.684 157.925,12.3507 155.5,13.5C 158.456,16.5891 157.789,18.2558 153.5,18.5C 153.167,18.5 152.833,18.5 152.5,18.5C 152.5,18.1667 152.5,17.8333 152.5,17.5C 151.143,15.5012 151.81,14.3345 154.5,14C 152.563,13.8784 151.23,13.045 150.5,11.5 Z"/></g>
<g><path style="opacity:1" fill="#783485" d="M 165.5,-0.5 C 166.5,-0.5 167.5,-0.5 168.5,-0.5C 168.5,7.16667 168.5,14.8333 168.5,22.5C 168.209,24.5642 166.709,26.2309 164,27.5C 163.5,26.5 163,25.5 162.5,24.5C 163.167,24.1667 163.833,23.8333 164.5,23.5C 163.675,22.6143 162.675,22.281 161.5,22.5C 161.285,20.8212 161.952,19.8212 163.5,19.5C 164.29,18.3915 164.79,17.0581 165,15.5C 165.92,15.0698 166.753,14.7365 167.5,14.5C 165.63,9.7388 164.963,4.7388 165.5,-0.5 Z"/></g>
<g><path style="opacity:1" fill="#b1282e" d="M -0.5,16.5 C 2.59388,17.2134 5.59388,18.2134 8.5,19.5C 8.41253,22.5983 8.91253,22.9316 10,20.5C 11.5644,22.6303 11.5644,24.6303 10,26.5C 8.29424,25.6921 7.46091,24.3588 7.5,22.5C 4.38545,22.3939 1.71879,23.3939 -0.5,25.5C -0.5,22.5 -0.5,19.5 -0.5,16.5 Z"/></g>
<g><path style="opacity:1" fill="#c7a21d" d="M 24.5,12.5 C 24.5,12.8333 24.5,13.1667 24.5,13.5C 23.5386,15.2646 23.2053,17.2646 23.5,19.5C 20.7718,19.1706 18.4385,19.8372 16.5,21.5C 15.3871,20.0536 15.2204,18.3869 16,16.5C 17.9717,15.6948 19.4717,14.3615 20.5,12.5C 21.1924,13.0253 21.6924,13.6919 22,14.5C 22.4169,13.244 23.2502,12.5774 24.5,12.5 Z"/></g>
<g><path style="opacity:1" fill="#cab423" d="M 106.5,11.5 C 105.616,13.6945 104.616,16.0278 103.5,18.5C 101.91,18.3718 100.577,17.7051 99.5,16.5C 100.473,12.8523 102.807,11.1857 106.5,11.5 Z"/></g>
<g><path style="opacity:1" fill="#6a4988" d="M 132.5,10.5 C 131.957,10.56 131.624,10.8933 131.5,11.5C 132.269,14.6241 133.936,15.2908 136.5,13.5C 136.366,15.2915 136.699,16.9582 137.5,18.5C 135.888,19.4523 134.388,19.7856 133,19.5C 132.333,21.1667 132.333,22.8333 133,24.5C 133.383,23.944 133.883,23.6107 134.5,23.5C 133.5,26.1667 132.5,26.1667 131.5,23.5C 131.962,18.7558 130.462,17.7558 127,20.5C 126.692,19.6919 126.192,19.0253 125.5,18.5C 124.5,19.8333 123.5,19.8333 122.5,18.5C 121.859,19.9935 120.859,20.9935 119.5,21.5C 119.34,19.8008 119.506,18.1341 120,16.5C 122.795,17.7825 125.628,17.7825 128.5,16.5C 127.757,15.8182 127.091,15.1515 126.5,14.5C 127.833,14.5 129.167,14.5 130.5,14.5C 130.5,13.1667 130.5,11.8333 130.5,10.5C 131.548,8.06732 132.214,8.06732 132.5,10.5 Z"/></g>
<g><path style="opacity:1" fill="#793a84" d="M 150.5,11.5 C 151.23,13.045 152.563,13.8784 154.5,14C 151.81,14.3345 151.143,15.5012 152.5,17.5C 150.75,20.3554 149.917,23.6887 150,27.5C 149.667,22.5 149.333,17.5 149,12.5C 147.615,14.9155 147.115,17.2488 147.5,19.5C 147.167,19.5 146.833,19.5 146.5,19.5C 145.25,19.5774 144.417,20.244 144,21.5C 143.722,20.5842 143.222,19.9175 142.5,19.5C 142.44,18.9569 142.107,18.6236 141.5,18.5C 140.431,19.9095 139.097,20.9095 137.5,21.5C 137.5,20.5 137.5,19.5 137.5,18.5C 136.699,16.9582 136.366,15.2915 136.5,13.5C 140.964,12.3563 145.63,11.6896 150.5,11.5 Z"/></g>
<g><path style="opacity:1" fill="#c4991e" d="M 68.5,13.5 C 68.5,13.1667 68.5,12.8333 68.5,12.5C 72.1389,13.1603 75.4723,14.4936 78.5,16.5C 78.2627,17.791 78.596,18.791 79.5,19.5C 79.5,19.8333 79.5,20.1667 79.5,20.5C 79.5611,23.318 79.2278,26.318 78.5,29.5C 77.7025,29.0431 77.3691,28.3764 77.5,27.5C 78.2686,23.2754 76.6019,20.6087 72.5,19.5C 71.5,19.5 70.5,19.5 69.5,19.5C 69.7947,17.2646 69.4614,15.2646 68.5,13.5 Z"/></g>
<g><path style="opacity:1" fill="#8f816b" d="M 49.5,18.5 C 49.4431,19.609 49.1098,20.609 48.5,21.5C 47.2502,21.4226 46.4169,20.756 46,19.5C 44.8932,20.7119 44.3932,20.3786 44.5,18.5C 45.1667,18.5 45.5,18.1667 45.5,17.5C 46.1556,16.7222 46.9889,16.0556 48,15.5C 49.0637,16.4205 49.5637,17.4205 49.5,18.5 Z"/></g>
<g><path style="opacity:1" fill="#af2d34" d="M 68.5,13.5 C 69.4614,15.2646 69.7947,17.2646 69.5,19.5C 70.5,19.5 71.5,19.5 72.5,19.5C 72.0825,20.2216 71.4158,20.7216 70.5,21C 71.1667,21.3333 71.8333,21.6667 72.5,22C 70.7091,22.4152 69.3757,23.4152 68.5,25C 66.4528,25.054 66.4528,24.054 68.5,22C 67.212,21.7613 66.212,22.2613 65.5,23.5C 64.8333,23.5 64.5,23.1667 64.5,22.5C 64.8693,20.0065 64.2027,19.3398 62.5,20.5C 62.5,19.8333 62.5,19.1667 62.5,18.5C 64.1439,18.2865 65.6439,18.6198 67,19.5C 67.2098,18.1971 67.0431,16.8638 66.5,15.5C 66.7472,14.2867 67.4138,13.62 68.5,13.5 Z"/></g>
<g><path style="opacity:1" fill="#7b3a80" d="M 106.5,11.5 C 108.833,11.5 111.167,11.5 113.5,11.5C 114.492,11.3284 115.158,11.6618 115.5,12.5C 113.5,12.5 111.5,12.5 109.5,12.5C 107.689,16.5601 106.689,21.0601 106.5,26C 106.648,27.2559 106.982,28.4226 107.5,29.5C 106.5,29.5 105.5,29.5 104.5,29.5C 104.767,31.9653 105.434,34.2986 106.5,36.5C 105.504,36.5858 104.671,36.2524 104,35.5C 103.828,31.1289 103.328,26.7956 102.5,22.5C 101.676,24.7476 100.676,24.9142 99.5,23C 100.712,21.8932 100.379,21.3932 98.5,21.5C 100.261,20.6873 101.928,19.6873 103.5,18.5C 104.616,16.0278 105.616,13.6945 106.5,11.5 Z"/></g>
<g><path style="opacity:1" fill="#e5ce21" d="M 117.5,22.5 C 117.167,22.5 116.833,22.5 116.5,22.5C 115.912,24.2051 115.579,25.8717 115.5,27.5C 113.812,24.7772 112.145,22.1106 110.5,19.5C 112.455,18.6765 114.455,18.5099 116.5,19C 117.337,20.0113 117.67,21.1779 117.5,22.5 Z"/></g>
<g><path style="opacity:1" fill="#7a5672" d="M 43.5,18.5 C 42.1938,18.879 40.8605,19.2124 39.5,19.5C 40.3256,20.451 40.4922,21.451 40,22.5C 38.5861,21.5868 37.0861,21.5868 35.5,22.5C 35.67,21.1779 35.3366,20.0113 34.5,19C 32.4546,18.5099 30.4546,18.6765 28.5,19.5C 28.8333,18.8333 29.1667,18.1667 29.5,17.5C 34.2352,16.6745 38.9019,17.0078 43.5,18.5 Z"/></g>
<g><path style="opacity:1" fill="#cfbb3a" d="M 43.5,18.5 C 43.8333,18.5 44.1667,18.5 44.5,18.5C 44.3932,20.3786 44.8932,20.7119 46,19.5C 46.4169,20.756 47.2502,21.4226 48.5,21.5C 49.0431,21.56 49.3764,21.8933 49.5,22.5C 48.624,23.2508 47.624,23.7508 46.5,24C 46.7284,24.3988 47.0618,24.5654 47.5,24.5C 47.5,24.8333 47.5,25.1667 47.5,25.5C 45.742,25.1231 44.0754,24.4565 42.5,23.5C 41.8076,24.0253 41.3076,24.6919 41,25.5C 39.3745,25.1459 37.5412,25.1459 35.5,25.5C 35.5,24.5 35.5,23.5 35.5,22.5C 37.0861,21.5868 38.5861,21.5868 40,22.5C 40.4922,21.451 40.3256,20.451 39.5,19.5C 40.8605,19.2124 42.1938,18.879 43.5,18.5 Z"/></g>
<g><path style="opacity:1" fill="#5a6d95" d="M 116.5,22.5 C 114.663,22.3605 114.33,21.6939 115.5,20.5C 116.298,20.9569 116.631,21.6236 116.5,22.5 Z"/></g>
<g><path style="opacity:1" fill="#dcc721" d="M 137.5,18.5 C 137.5,19.5 137.5,20.5 137.5,21.5C 137.167,22.5 136.5,23.1667 135.5,23.5C 135.167,23.5 134.833,23.5 134.5,23.5C 133.883,23.6107 133.383,23.944 133,24.5C 132.333,22.8333 132.333,21.1667 133,19.5C 134.388,19.7856 135.888,19.4523 137.5,18.5 Z"/></g>
<g><path style="opacity:1" fill="#b02b2d" d="M 24.5,13.5 C 26.1667,14.8333 27.8333,16.1667 29.5,17.5C 29.1667,18.1667 28.8333,18.8333 28.5,19.5C 28.1586,22.5618 26.4919,24.7284 23.5,26C 24.3805,26.7083 25.0472,27.5416 25.5,28.5C 22.7531,28.8134 20.0865,28.48 17.5,27.5C 18.8255,27.7948 20.1588,27.2948 21.5,26C 19.2922,25.8091 17.2922,25.3091 15.5,24.5C 15.5569,23.391 15.8902,22.391 16.5,21.5C 18.4385,19.8372 20.7718,19.1706 23.5,19.5C 23.2053,17.2646 23.5386,15.2646 24.5,13.5 Z"/></g>
<g><path style="opacity:1" fill="#d8c026" d="M 142.5,19.5 C 143.222,19.9175 143.722,20.5842 144,21.5C 144.417,20.244 145.25,19.5774 146.5,19.5C 146.267,22.5418 145.267,25.2084 143.5,27.5C 143.423,26.2502 142.756,25.4169 141.5,25C 142.044,23.0412 142.377,21.2079 142.5,19.5 Z"/></g>
<g><path style="opacity:1" fill="#794886" d="M 146.5,19.5 C 146.833,19.5 147.167,19.5 147.5,19.5C 148.768,21.6702 148.768,23.8368 147.5,26C 148.308,27.7058 149.641,28.5391 151.5,28.5C 151.5,28.8333 151.5,29.1667 151.5,29.5C 145.833,29.5 140.167,29.5 134.5,29.5C 137.053,28.7451 139.72,28.0784 142.5,27.5C 142.833,27.5 143.167,27.5 143.5,27.5C 145.267,25.2084 146.267,22.5418 146.5,19.5 Z"/></g>
<g><path style="opacity:1" fill="#dbca29" d="M 35.5,22.5 C 35.1667,22.5 34.8333,22.5 34.5,22.5C 34.5,24.1667 34.5,25.8333 34.5,27.5C 32.5,25.5 30.5,23.5 28.5,21.5C 28.5,20.8333 28.5,20.1667 28.5,19.5C 30.4546,18.6765 32.4546,18.5099 34.5,19C 35.3366,20.0113 35.67,21.1779 35.5,22.5 Z"/></g>
<g><path style="opacity:1" fill="#6d6686" d="M 34.5,22.5 C 32.663,22.3605 32.3296,21.6939 33.5,20.5C 34.2975,20.9569 34.6309,21.6236 34.5,22.5 Z"/></g>
<g><path style="opacity:1" fill="#5e5c85" d="M 55.5,18.5 C 54.1529,19.1712 52.9862,19.1712 52,18.5C 51.3076,19.0253 50.8076,19.6919 50.5,20.5C 50.8333,21.8333 51.1667,23.1667 51.5,24.5C 53.9608,23.7086 55.2941,22.0419 55.5,19.5C 57.7638,18.7814 60.0971,18.448 62.5,18.5C 62.5,19.1667 62.5,19.8333 62.5,20.5C 61.1351,19.2629 59.6351,19.2629 58,20.5C 57.3828,21.4491 57.5494,22.2825 58.5,23C 57.2624,22.9227 56.2624,23.0894 55.5,23.5C 57.8474,24.1508 59.5141,25.4841 60.5,27.5C 56.2457,27.2171 51.9124,26.2171 47.5,24.5C 47.0618,24.5654 46.7284,24.3988 46.5,24C 47.624,23.7508 48.624,23.2508 49.5,22.5C 49.3764,21.8933 49.0431,21.56 48.5,21.5C 49.1098,20.609 49.4431,19.609 49.5,18.5C 51.6112,17.2584 53.6112,17.2584 55.5,18.5 Z"/></g>
<g><path style="opacity:1" fill="#dac627" d="M 55.5,18.5 C 55.5,18.8333 55.5,19.1667 55.5,19.5C 55.2941,22.0419 53.9608,23.7086 51.5,24.5C 51.1667,23.1667 50.8333,21.8333 50.5,20.5C 50.8076,19.6919 51.3076,19.0253 52,18.5C 52.9862,19.1712 54.1529,19.1712 55.5,18.5 Z"/></g>
<g><path style="opacity:1" fill="#743282" d="M 90.5,-0.5 C 90.8333,-0.5 91.1667,-0.5 91.5,-0.5C 91.2529,2.93869 91.5863,6.27203 92.5,9.5C 92.3975,12.2186 92.7308,14.8853 93.5,17.5C 94.211,19.5446 95.5443,20.8779 97.5,21.5C 98.2341,22.7079 98.5674,24.0413 98.5,25.5C 97.2101,24.9423 96.3768,23.9423 96,22.5C 95.6155,24.1966 95.7822,25.8632 96.5,27.5C 94.9446,30.5756 93.9446,33.9089 93.5,37.5C 92.2101,36.9423 91.3768,35.9423 91,34.5C 90.5001,22.8381 90.3335,11.1714 90.5,-0.5 Z"/></g>
<g><path style="opacity:1" fill="#c2ad47" d="M 131.5,23.5 C 130.167,23.5 129.5,24.1667 129.5,25.5C 127.742,25.1231 126.075,24.4565 124.5,23.5C 122.821,25.1045 120.821,25.7711 118.5,25.5C 117.596,24.791 117.263,23.791 117.5,22.5C 118.167,22.1667 118.833,21.8333 119.5,21.5C 120.859,20.9935 121.859,19.9935 122.5,18.5C 123.5,19.8333 124.5,19.8333 125.5,18.5C 126.192,19.0253 126.692,19.6919 127,20.5C 130.462,17.7558 131.962,18.7558 131.5,23.5 Z"/></g>
<g><path style="opacity:1" fill="#75357f" d="M 161.5,22.5 C 162.675,22.281 163.675,22.6143 164.5,23.5C 163.833,23.8333 163.167,24.1667 162.5,24.5C 163,25.5 163.5,26.5 164,27.5C 166.709,26.2309 168.209,24.5642 168.5,22.5C 168.666,28.1764 168.499,33.8431 168,39.5C 167.667,39.8333 167.333,40.1667 167,40.5C 166.508,39.451 166.674,38.451 167.5,37.5C 167.154,36.3044 166.654,36.3044 166,37.5C 165.28,39.1124 165.446,40.6124 166.5,42C 165.956,42.7172 165.289,43.2172 164.5,43.5C 164.384,39.1581 163.218,35.1581 161,31.5C 160.802,33.3817 160.302,35.0484 159.5,36.5C 159.5,33.8333 159.5,31.1667 159.5,28.5C 160.222,28.9175 160.722,29.5842 161,30.5C 161.167,30 161.333,29.5 161.5,29C 160.614,26.8882 160.614,24.7216 161.5,22.5 Z"/></g>
<g><path style="opacity:1" fill="#c2b13c" d="M 62.5,20.5 C 64.2027,19.3398 64.8693,20.0065 64.5,22.5C 63.8676,24.7426 62.5342,26.4093 60.5,27.5C 59.5141,25.4841 57.8474,24.1508 55.5,23.5C 56.2624,23.0894 57.2624,22.9227 58.5,23C 57.5494,22.2825 57.3828,21.4491 58,20.5C 59.6351,19.2629 61.1351,19.2629 62.5,20.5 Z"/></g>
<g><path style="opacity:1" fill="#ac2b2e" d="M 82.5,15.5 C 82.3433,16.8734 82.51,18.2068 83,19.5C 83.414,19.0426 83.914,18.7093 84.5,18.5C 85.1818,19.2427 85.8485,19.9094 86.5,20.5C 86.5,24.5 86.5,28.5 86.5,32.5C 83.5717,31.487 82.2384,32.8203 82.5,36.5C 81.7784,36.0825 81.2784,35.4158 81,34.5C 80.6667,34.8333 80.3333,35.1667 80,35.5C 79.79,33.9419 79.29,32.6085 78.5,31.5C 77.9326,30.5798 78.5992,30.2465 80.5,30.5C 80.7471,27.0613 80.4137,23.728 79.5,20.5C 79.5,20.1667 79.5,19.8333 79.5,19.5C 80.1224,17.8784 81.1224,16.5451 82.5,15.5 Z"/></g>
<g><path style="opacity:1" fill="#95925a" d="M 142.5,19.5 C 142.377,21.2079 142.044,23.0412 141.5,25C 142.756,25.4169 143.423,26.2502 143.5,27.5C 143.167,27.5 142.833,27.5 142.5,27.5C 140.951,25.5946 139.118,25.2613 137,26.5C 135.961,25.7562 135.461,24.7562 135.5,23.5C 136.5,23.1667 137.167,22.5 137.5,21.5C 139.097,20.9095 140.431,19.9095 141.5,18.5C 142.107,18.6236 142.44,18.9569 142.5,19.5 Z"/></g>
<g><path style="opacity:1" fill="#3a3488" d="M 28.5,21.5 C 30.5,23.5 32.5,25.5 34.5,27.5C 33.6136,28.7759 32.6136,28.7759 31.5,27.5C 30.4867,25.4734 29.4867,23.4734 28.5,21.5 Z"/></g>
<g><path style="opacity:1" fill="#ad2a2d" d="M 72.5,19.5 C 76.6019,20.6087 78.2686,23.2754 77.5,27.5C 73.2648,28.436 68.9315,28.7693 64.5,28.5C 64.6287,26.7839 64.962,25.1172 65.5,23.5C 66.212,22.2613 67.212,21.7613 68.5,22C 66.4528,24.054 66.4528,25.054 68.5,25C 69.3757,23.4152 70.7091,22.4152 72.5,22C 71.8333,21.6667 71.1667,21.3333 70.5,21C 71.4158,20.7216 72.0825,20.2216 72.5,19.5 Z"/></g>
<g><path style="opacity:1" fill="#b18e37" d="M 98.5,25.5 C 98.5,26.8333 97.8333,27.5 96.5,27.5C 95.7822,25.8632 95.6155,24.1966 96,22.5C 96.3768,23.9423 97.2101,24.9423 98.5,25.5 Z"/></g>
<g><path style="opacity:1" fill="#6b4383" d="M 129.5,25.5 C 129.5,26.8333 129.5,28.1667 129.5,29.5C 125.833,29.5 122.167,29.5 118.5,29.5C 119.833,28.1667 119.833,26.8333 118.5,25.5C 120.821,25.7711 122.821,25.1045 124.5,23.5C 126.075,24.4565 127.742,25.1231 129.5,25.5 Z"/></g>
<g><path style="opacity:1" fill="#ac292f" d="M 10.5,18.5 C 11.5,18.5 12.5,18.5 13.5,18.5C 12.9054,21.6537 12.9054,24.6537 13.5,27.5C 12.0048,27.9887 10.6715,28.6554 9.5,29.5C 6.20794,31.7756 2.8746,34.109 -0.5,36.5C -0.5,32.8333 -0.5,29.1667 -0.5,25.5C 1.71879,23.3939 4.38545,22.3939 7.5,22.5C 7.46091,24.3588 8.29424,25.6921 10,26.5C 11.5644,24.6303 11.5644,22.6303 10,20.5C 8.91253,22.9316 8.41253,22.5983 8.5,19.5C 8.84171,18.6618 9.50838,18.3284 10.5,18.5 Z"/></g>
<g><path style="opacity:1" fill="#a93b39" d="M 28.5,19.5 C 28.5,20.1667 28.5,20.8333 28.5,21.5C 29.4867,23.4734 30.4867,25.4734 31.5,27.5C 32.6136,28.7759 33.6136,28.7759 34.5,27.5C 39.0202,26.4281 43.3535,25.7614 47.5,25.5C 47.5,25.1667 47.5,24.8333 47.5,24.5C 51.9124,26.2171 56.2457,27.2171 60.5,27.5C 62.5342,26.4093 63.8676,24.7426 64.5,22.5C 64.5,23.1667 64.8333,23.5 65.5,23.5C 64.962,25.1172 64.6287,26.7839 64.5,28.5C 62.5853,28.2155 60.9187,28.5489 59.5,29.5C 58.9035,30.9354 58.9035,32.602 59.5,34.5C 58.5,34.5 57.5,34.5 56.5,34.5C 56.5,33.5 56.5,32.5 56.5,31.5C 50.2504,29.5411 43.5837,28.8745 36.5,29.5C 33.1667,29.5 29.8333,29.5 26.5,29.5C 26.5,28.8333 26.1667,28.5 25.5,28.5C 25.0472,27.5416 24.3805,26.7083 23.5,26C 26.4919,24.7284 28.1586,22.5618 28.5,19.5 Z"/></g>
<g><path style="opacity:1" fill="#524c82" d="M 34.5,22.5 C 34.8333,22.5 35.1667,22.5 35.5,22.5C 35.5,23.5 35.5,24.5 35.5,25.5C 37.5412,25.1459 39.3745,25.1459 41,25.5C 41.3076,24.6919 41.8076,24.0253 42.5,23.5C 44.0754,24.4565 45.742,25.1231 47.5,25.5C 43.3535,25.7614 39.0202,26.4281 34.5,27.5C 34.5,25.8333 34.5,24.1667 34.5,22.5 Z"/></g>
<g><path style="opacity:1" fill="#6d3988" d="M 109.5,12.5 C 108.962,14.1172 108.629,15.7839 108.5,17.5C 110.993,17.1307 111.66,17.7973 110.5,19.5C 112.145,22.1106 113.812,24.7772 115.5,27.5C 115.579,25.8717 115.912,24.2051 116.5,22.5C 116.833,22.5 117.167,22.5 117.5,22.5C 117.263,23.791 117.596,24.791 118.5,25.5C 119.833,26.8333 119.833,28.1667 118.5,29.5C 114.529,28.7577 111.696,30.091 110,33.5C 109.066,32.1416 108.232,30.8083 107.5,29.5C 106.982,28.4226 106.648,27.2559 106.5,26C 106.689,21.0601 107.689,16.5601 109.5,12.5 Z"/></g>
<g><path style="opacity:1" fill="#6f3586" d="M 131.5,23.5 C 132.5,26.1667 133.5,26.1667 134.5,23.5C 134.833,23.5 135.167,23.5 135.5,23.5C 135.461,24.7562 135.961,25.7562 137,26.5C 139.118,25.2613 140.951,25.5946 142.5,27.5C 139.72,28.0784 137.053,28.7451 134.5,29.5C 134.5,29.8333 134.5,30.1667 134.5,30.5C 133.539,32.2646 133.205,34.2646 133.5,36.5C 132.5,36.5 131.5,36.5 130.5,36.5C 130.802,33.9407 130.468,31.6074 129.5,29.5C 129.5,28.1667 129.5,26.8333 129.5,25.5C 129.5,24.1667 130.167,23.5 131.5,23.5 Z"/></g>
<g><path style="opacity:1" fill="#6e2e84" d="M 152.5,17.5 C 152.5,17.8333 152.5,18.1667 152.5,18.5C 152.813,22.0419 152.479,25.3752 151.5,28.5C 149.641,28.5391 148.308,27.7058 147.5,26C 148.768,23.8368 148.768,21.6702 147.5,19.5C 147.115,17.2488 147.615,14.9155 149,12.5C 149.333,17.5 149.667,22.5 150,27.5C 149.917,23.6887 150.75,20.3554 152.5,17.5 Z"/></g>
<g><path style="opacity:1" fill="#f2d607" d="M 26.5,29.5 C 29.8333,29.5 33.1667,29.5 36.5,29.5C 36.5,29.8333 36.5,30.1667 36.5,30.5C 35.5721,33.4535 34.7388,36.4535 34,39.5C 33.3292,38.7476 32.4959,38.4142 31.5,38.5C 29.8325,36.5214 29.1658,34.188 29.5,31.5C 31.1667,32.1667 32.8333,32.8333 34.5,33.5C 34.5,32.5 34.5,31.5 34.5,30.5C 30.4607,29.6597 27.4607,30.993 25.5,34.5C 24.1667,33.5 22.8333,32.5 21.5,31.5C 21.1667,32 20.8333,32.5 20.5,33C 21.7989,34.3264 23.1322,35.6598 24.5,37C 23.154,38.5868 21.8206,38.4202 20.5,36.5C 20.1667,36.5 19.8333,36.5 19.5,36.5C 17.3026,30.0762 19.636,27.7428 26.5,29.5 Z"/></g>
<g><path style="opacity:1" fill="#ebce0e" d="M 59.5,29.5 C 64.8333,29.5 70.1667,29.5 75.5,29.5C 74.5942,32.4359 73.9275,35.4359 73.5,38.5C 72.794,39.5573 72.4607,39.2239 72.5,37.5C 72.3379,35.4727 72.5045,33.4727 73,31.5C 73.6543,32.6956 74.1543,32.6956 74.5,31.5C 71.2156,30.343 67.8823,30.1764 64.5,31C 65.9931,32.3681 67.4931,32.5348 69,31.5C 69.6667,33.1667 69.6667,34.8333 69,36.5C 67.8594,32.9942 66.6928,33.3275 65.5,37.5C 62.7558,38.3768 62.0891,37.3768 63.5,34.5C 65.2141,35.6085 65.8808,34.9418 65.5,32.5C 63.8333,31.8333 62.1667,31.1667 60.5,30.5C 60.5,32.8333 60.5,35.1667 60.5,37.5C 59.5041,37.5858 58.6708,37.2524 58,36.5C 57.6924,37.3081 57.1924,37.9747 56.5,38.5C 55.5258,36.2573 55.1924,33.924 55.5,31.5C 55.8333,31.5 56.1667,31.5 56.5,31.5C 56.5,32.5 56.5,33.5 56.5,34.5C 57.5,34.5 58.5,34.5 59.5,34.5C 58.9035,32.602 58.9035,30.9354 59.5,29.5 Z"/></g>
<g><path style="opacity:1" fill="#d7b827" d="M 134.5,29.5 C 140.167,29.5 145.833,29.5 151.5,29.5C 152.867,31.0927 152.534,32.4261 150.5,33.5C 149.534,35.396 149.201,37.396 149.5,39.5C 148.292,40.2341 146.959,40.5674 145.5,40.5C 145.663,38.1432 145.497,35.8098 145,33.5C 144.586,33.0426 144.086,32.7093 143.5,32.5C 142.63,34.7273 142.297,37.0607 142.5,39.5C 140.282,38.9841 138.282,37.9841 136.5,36.5C 143.041,35.2045 143.041,34.5378 136.5,34.5C 136.5,33.5 136.5,32.5 136.5,31.5C 138.199,31.6602 139.866,31.4935 141.5,31C 139.527,30.5045 137.527,30.3379 135.5,30.5C 135.5,32.1667 135.5,33.8333 135.5,35.5C 134.549,34.0813 134.216,32.4147 134.5,30.5C 134.5,30.1667 134.5,29.8333 134.5,29.5 Z"/></g>
<g><path style="opacity:1" fill="#723085" d="M 157.5,21.5 C 158.586,21.62 159.253,22.2867 159.5,23.5C 158.421,25.2527 158.421,26.9194 159.5,28.5C 159.5,31.1667 159.5,33.8333 159.5,36.5C 159.167,36.5 158.833,36.5 158.5,36.5C 157.25,36.4226 156.417,35.756 156,34.5C 155.781,35.938 155.281,37.2713 154.5,38.5C 154.167,37.8333 153.833,37.1667 153.5,36.5C 154.465,34.6711 155.465,32.8377 156.5,31C 156.245,29.6739 155.578,28.6739 154.5,28C 155.992,26.0088 156.992,23.8422 157.5,21.5 Z"/></g>
<g><path style="opacity:1" fill="#aa4830" d="M 79.5,20.5 C 80.4137,23.728 80.7471,27.0613 80.5,30.5C 78.5992,30.2465 77.9326,30.5798 78.5,31.5C 79.5131,35.813 77.8464,38.1463 73.5,38.5C 73.9275,35.4359 74.5942,32.4359 75.5,29.5C 70.1667,29.5 64.8333,29.5 59.5,29.5C 60.9187,28.5489 62.5853,28.2155 64.5,28.5C 68.9315,28.7693 73.2648,28.436 77.5,27.5C 77.3691,28.3764 77.7025,29.0431 78.5,29.5C 79.2278,26.318 79.5611,23.318 79.5,20.5 Z"/></g>
<g><path style="opacity:1" fill="#a43d94" d="M 125.5,30.5 C 125.5,33.1667 125.5,35.8333 125.5,38.5C 125.167,38.5 124.833,38.5 124.5,38.5C 124.5,38.8333 124.5,39.1667 124.5,39.5C 122.5,39.5 120.5,39.5 118.5,39.5C 118.5,36.5 118.5,33.5 118.5,30.5C 120.833,30.5 123.167,30.5 125.5,30.5 Z"/></g>
<g><path style="opacity:1" fill="#a62a2e" d="M 9.5,29.5 C 11.153,29.6596 12.4863,30.3263 13.5,31.5C 12.0669,33.9665 11.0669,37.2998 10.5,41.5C 6.78389,42.6567 3.11723,42.6567 -0.5,41.5C -0.5,39.8333 -0.5,38.1667 -0.5,36.5C 2.8746,34.109 6.20794,31.7756 9.5,29.5 Z"/></g>
<g><path style="opacity:1" fill="#f7e106" d="M 36.5,30.5 C 36.5,30.1667 36.5,29.8333 36.5,29.5C 43.5837,28.8745 50.2504,29.5411 56.5,31.5C 56.1667,31.5 55.8333,31.5 55.5,31.5C 54.7494,30.4265 53.7494,30.2599 52.5,31C 52.8333,31.3333 53.1667,31.6667 53.5,32C 52.8828,34.277 52.2161,36.4437 51.5,38.5C 50.8592,37.5178 50.1925,36.5178 49.5,35.5C 50.1667,34.5 50.8333,33.5 51.5,32.5C 51.3764,31.8933 51.0431,31.56 50.5,31.5C 48.3926,30.5318 46.0593,30.1984 43.5,30.5C 43.7947,32.7354 43.4614,34.7354 42.5,36.5C 42.1667,34.5 41.8333,32.5 41.5,30.5C 39.8333,30.5 38.1667,30.5 36.5,30.5 Z"/></g>
<g><path style="opacity:1" fill="#e5a30b" d="M 50.5,31.5 C 48.9548,34.1087 47.2882,34.1087 45.5,31.5C 44.1667,34.1667 44.1667,36.8333 45.5,39.5C 45.9431,35.1915 47.2764,34.6915 49.5,38C 48.5842,38.2784 47.9175,38.7784 47.5,39.5C 45.0521,40.4731 42.3854,40.8064 39.5,40.5C 39.5,39.1667 39.5,37.8333 39.5,36.5C 38.5,36.5 37.5,36.5 36.5,36.5C 37.5676,35.5655 38.901,35.2322 40.5,35.5C 40.238,36.9778 40.5713,38.3112 41.5,39.5C 42.3857,38.675 42.719,37.675 42.5,36.5C 43.4614,34.7354 43.7947,32.7354 43.5,30.5C 46.0593,30.1984 48.3926,30.5318 50.5,31.5 Z"/></g>
<g><path style="opacity:1" fill="#76387b" d="M 98.5,25.5 C 99.3019,26.9516 99.8019,28.6183 100,30.5C 100.333,30.1667 100.667,29.8333 101,29.5C 102.267,31.4236 102.267,33.0903 101,34.5C 100.444,32.4049 99.9444,32.2382 99.5,34C 99.8623,35.2247 100.362,36.3914 101,37.5C 101.333,36.8333 101.667,36.1667 102,35.5C 101.932,37.3423 102.099,39.009 102.5,40.5C 102.167,40.5 101.833,40.5 101.5,40.5C 100.549,38.882 99.2156,37.5487 97.5,36.5C 96.5159,33.5719 96.1826,30.5719 96.5,27.5C 97.8333,27.5 98.5,26.8333 98.5,25.5 Z"/></g>
<g><path style="opacity:1" fill="#a73a2d" d="M 15.5,24.5 C 17.2922,25.3091 19.2922,25.8091 21.5,26C 20.1588,27.2948 18.8255,27.7948 17.5,27.5C 20.0865,28.48 22.7531,28.8134 25.5,28.5C 26.1667,28.5 26.5,28.8333 26.5,29.5C 19.636,27.7428 17.3026,30.0762 19.5,36.5C 18.7784,36.9175 18.2784,37.5842 18,38.5C 15.5824,36.6729 14.0824,34.3395 13.5,31.5C 12.4863,30.3263 11.153,29.6596 9.5,29.5C 10.6715,28.6554 12.0048,27.9887 13.5,27.5C 13.6395,29.337 14.3061,29.6704 15.5,28.5C 14.2947,27.0052 14.2947,25.6719 15.5,24.5 Z"/></g>
<g><path style="opacity:1" fill="#a7362d" d="M 86.5,32.5 C 86.8158,35.9783 86.3158,39.3117 85,42.5C 84.6667,42.1667 84.3333,41.8333 84,41.5C 83.0718,44.0352 81.2385,45.0352 78.5,44.5C 76.9192,42.8583 76.2525,40.8583 76.5,38.5C 79.766,38.4326 81.266,40.0992 81,43.5C 82.065,41.251 82.565,38.9176 82.5,36.5C 82.2384,32.8203 83.5717,31.487 86.5,32.5 Z"/></g>
<g><path style="opacity:1" fill="#ebd712" d="M 124.5,37.5 C 123.549,36.0813 123.216,34.4147 123.5,32.5C 122.5,32.5 121.5,32.5 120.5,32.5C 120.784,34.4147 120.451,36.0813 119.5,37.5C 119.5,35.5 119.5,33.5 119.5,31.5C 121.167,31.5 122.833,31.5 124.5,31.5C 124.5,33.5 124.5,35.5 124.5,37.5 Z"/></g>
<g><path style="opacity:1" fill="#763681" d="M 89.5,-0.5 C 89.8333,-0.5 90.1667,-0.5 90.5,-0.5C 90.3335,11.1714 90.5001,22.8381 91,34.5C 91.3768,35.9423 92.2101,36.9423 93.5,37.5C 93.1667,38.8333 92.8333,40.1667 92.5,41.5C 91.4168,41.5394 90.4168,41.8728 89.5,42.5C 88.188,40.2637 88.5213,38.2637 90.5,36.5C 89.8333,30.1667 89.1667,23.8333 88.5,17.5C 89.1078,12.0392 89.4412,6.03919 89.5,-0.5 Z"/></g>
<g><path style="opacity:1" fill="#6f3085" d="M 97.5,21.5 C 97.8333,21.5 98.1667,21.5 98.5,21.5C 100.379,21.3932 100.712,21.8932 99.5,23C 100.676,24.9142 101.676,24.7476 102.5,22.5C 103.328,26.7956 103.828,31.1289 104,35.5C 104.671,36.2524 105.504,36.5858 106.5,36.5C 106.557,37.609 106.89,38.609 107.5,39.5C 106.081,40.4511 104.415,40.7845 102.5,40.5C 102.099,39.009 101.932,37.3423 102,35.5C 101.667,36.1667 101.333,36.8333 101,37.5C 100.362,36.3914 99.8623,35.2247 99.5,34C 99.9444,32.2382 100.444,32.4049 101,34.5C 102.267,33.0903 102.267,31.4236 101,29.5C 100.667,29.8333 100.333,30.1667 100,30.5C 99.8019,28.6183 99.3019,26.9516 98.5,25.5C 98.5674,24.0413 98.2341,22.7079 97.5,21.5 Z"/></g>
<g><path style="opacity:1" fill="#ba3924" d="M 31.5,38.5 C 31.5,39.1667 31.1667,39.5 30.5,39.5C 29.3117,38.6364 28.1451,37.6364 27,36.5C 26.2249,38.2231 24.8916,39.2231 23,39.5C 21.2509,39.2517 20.4176,38.2517 20.5,36.5C 21.8206,38.4202 23.154,38.5868 24.5,37C 23.1322,35.6598 21.7989,34.3264 20.5,33C 20.8333,32.5 21.1667,32 21.5,31.5C 22.8333,32.5 24.1667,33.5 25.5,34.5C 27.4607,30.993 30.4607,29.6597 34.5,30.5C 34.5,31.5 34.5,32.5 34.5,33.5C 32.8333,32.8333 31.1667,32.1667 29.5,31.5C 29.1658,34.188 29.8325,36.5214 31.5,38.5 Z"/></g>
<g><path style="opacity:1" fill="#c9a73b" d="M 129.5,29.5 C 130.468,31.6074 130.802,33.9407 130.5,36.5C 131.5,36.5 132.5,36.5 133.5,36.5C 133.205,34.2646 133.539,32.2646 134.5,30.5C 134.216,32.4147 134.549,34.0813 135.5,35.5C 135.33,36.8221 135.663,37.9887 136.5,39C 138.473,39.4955 140.473,39.6621 142.5,39.5C 136.963,40.7617 131.297,40.7617 125.5,39.5C 125.5,39.1667 125.5,38.8333 125.5,38.5C 125.5,35.8333 125.5,33.1667 125.5,30.5C 126.167,30.5 126.833,30.5 127.5,30.5C 127.336,33.1873 127.503,35.854 128,38.5C 129.726,39.5762 131.559,39.7429 133.5,39C 128.975,38.6177 127.309,36.1177 128.5,31.5C 129.338,31.1583 129.672,30.4916 129.5,29.5 Z"/></g>
<g><path style="opacity:1" fill="#7c23a1" d="M 127.5,30.5 C 128.167,30.5 128.5,30.8333 128.5,31.5C 127.309,36.1177 128.975,38.6177 133.5,39C 131.559,39.7429 129.726,39.5762 128,38.5C 127.503,35.854 127.336,33.1873 127.5,30.5 Z"/></g>
<g><path style="opacity:1" fill="#8e3398" d="M 142.5,39.5 C 140.473,39.6621 138.473,39.4955 136.5,39C 135.663,37.9887 135.33,36.8221 135.5,35.5C 135.5,33.8333 135.5,32.1667 135.5,30.5C 137.527,30.3379 139.527,30.5045 141.5,31C 139.866,31.4935 138.199,31.6602 136.5,31.5C 136.5,32.5 136.5,33.5 136.5,34.5C 143.041,34.5378 143.041,35.2045 136.5,36.5C 138.282,37.9841 140.282,38.9841 142.5,39.5 Z"/></g>
<g><path style="opacity:1" fill="#9433a3" d="M 143.5,31.5 C 145.966,30.3659 148.633,30.1993 151.5,31C 150.234,31.3095 149.067,31.8095 148,32.5C 147.667,34.8333 147.333,37.1667 147,39.5C 146.503,36.854 146.336,34.1873 146.5,31.5C 145.5,31.5 144.5,31.5 143.5,31.5 Z"/></g>
<g><path style="opacity:1" fill="#a17a46" d="M 96.5,27.5 C 96.1826,30.5719 96.5159,33.5719 97.5,36.5C 99.2156,37.5487 100.549,38.882 101.5,40.5C 100.449,41.2223 99.7822,42.2223 99.5,43.5C 96.7837,45.0861 94.4503,44.7528 92.5,42.5C 92.5,42.1667 92.5,41.8333 92.5,41.5C 92.8333,40.1667 93.1667,38.8333 93.5,37.5C 93.9446,33.9089 94.9446,30.5756 96.5,27.5 Z"/></g>
<g><path style="opacity:1" fill="#a57361" d="M 124.5,37.5 C 124.5,37.8333 124.5,38.1667 124.5,38.5C 122.585,38.7845 120.919,38.4511 119.5,37.5C 120.451,36.0813 120.784,34.4147 120.5,32.5C 121.5,32.5 122.5,32.5 123.5,32.5C 123.216,34.4147 123.549,36.0813 124.5,37.5 Z"/></g>
<g><path style="opacity:1" fill="#9c724c" d="M 164.5,43.5 C 162.621,44.3414 160.621,44.6747 158.5,44.5C 157.853,42.8595 156.853,41.5261 155.5,40.5C 156.488,39.205 157.488,37.8717 158.5,36.5C 158.833,36.5 159.167,36.5 159.5,36.5C 160.302,35.0484 160.802,33.3817 161,31.5C 163.218,35.1581 164.384,39.1581 164.5,43.5 Z"/></g>
<g><path style="opacity:1" fill="#b87c23" d="M 13.5,31.5 C 14.0824,34.3395 15.5824,36.6729 18,38.5C 18.2784,37.5842 18.7784,36.9175 19.5,36.5C 19.8333,36.5 20.1667,36.5 20.5,36.5C 20.4176,38.2517 21.2509,39.2517 23,39.5C 24.8916,39.2231 26.2249,38.2231 27,36.5C 28.1451,37.6364 29.3117,38.6364 30.5,39.5C 27.4824,39.7038 24.4824,40.0371 21.5,40.5C 17.9417,39.1294 17.6084,39.796 20.5,42.5C 20.1667,43.5 19.5,44.1667 18.5,44.5C 16.3284,44.3241 13.9951,44.1575 11.5,44C 10.7476,43.3292 10.4142,42.4959 10.5,41.5C 11.0669,37.2998 12.0669,33.9665 13.5,31.5 Z"/></g>
<g><path style="opacity:1" fill="#ca7a1a" d="M 55.5,31.5 C 55.1924,33.924 55.5258,36.2573 56.5,38.5C 57.1924,37.9747 57.6924,37.3081 58,36.5C 58.6708,37.2524 59.5041,37.5858 60.5,37.5C 60.7911,38.6491 61.6244,39.3158 63,39.5C 63.8333,39.3333 64.6667,39.1667 65.5,39C 66.7383,38.31 66.7383,37.81 65.5,37.5C 66.6928,33.3275 67.8594,32.9942 69,36.5C 69.6667,34.8333 69.6667,33.1667 69,31.5C 67.4931,32.5348 65.9931,32.3681 64.5,31C 67.8823,30.1764 71.2156,30.343 74.5,31.5C 74.1543,32.6956 73.6543,32.6956 73,31.5C 72.5045,33.4727 72.3379,35.4727 72.5,37.5C 71.7321,36.7375 71.2321,35.7375 71,34.5C 70.3923,36.1545 69.8923,37.8211 69.5,39.5C 66.0343,40.0315 62.5343,40.3648 59,40.5C 56.0706,40.4752 53.5706,39.8086 51.5,38.5C 52.2161,36.4437 52.8828,34.277 53.5,32C 53.1667,31.6667 52.8333,31.3333 52.5,31C 53.7494,30.2599 54.7494,30.4265 55.5,31.5 Z"/></g>
<g><path style="opacity:1" fill="#c43a1d" d="M 65.5,37.5 C 66.7383,37.81 66.7383,38.31 65.5,39C 64.6667,39.1667 63.8333,39.3333 63,39.5C 61.6244,39.3158 60.7911,38.6491 60.5,37.5C 60.5,35.1667 60.5,32.8333 60.5,30.5C 62.1667,31.1667 63.8333,31.8333 65.5,32.5C 65.8808,34.9418 65.2141,35.6085 63.5,34.5C 62.0891,37.3768 62.7558,38.3768 65.5,37.5 Z"/></g>
<g><path style="opacity:1" fill="#d4ae3f" d="M 107.5,29.5 C 108.232,30.8083 109.066,32.1416 110,33.5C 111.696,30.091 114.529,28.7577 118.5,29.5C 122.167,29.5 125.833,29.5 129.5,29.5C 129.672,30.4916 129.338,31.1583 128.5,31.5C 128.5,30.8333 128.167,30.5 127.5,30.5C 126.833,30.5 126.167,30.5 125.5,30.5C 123.167,30.5 120.833,30.5 118.5,30.5C 118.5,33.5 118.5,36.5 118.5,39.5C 120.5,39.5 122.5,39.5 124.5,39.5C 121.375,40.4794 118.042,40.8128 114.5,40.5C 114.715,38.8212 114.048,37.8212 112.5,37.5C 111.83,40.5031 110.163,41.1697 107.5,39.5C 106.89,38.609 106.557,37.609 106.5,36.5C 105.434,34.2986 104.767,31.9653 104.5,29.5C 105.5,29.5 106.5,29.5 107.5,29.5 Z"/></g>
<g><path style="opacity:1" fill="#7621a3" d="M 112.5,37.5 C 110.395,40.4017 109.062,40.0684 108.5,36.5C 110.758,37.4473 111.925,36.4473 112,33.5C 112.49,34.7932 112.657,36.1266 112.5,37.5 Z"/></g>
<g><path style="opacity:1" fill="#8e2f9d" d="M 108.5,36.5 C 106.901,35.2015 106.401,33.5348 107,31.5C 108.009,33.0249 108.509,34.6916 108.5,36.5 Z"/></g>
<g><path style="opacity:1" fill="#763581" d="M 152.5,18.5 C 152.833,18.5 153.167,18.5 153.5,18.5C 154.833,19.5 156.167,20.5 157.5,21.5C 156.992,23.8422 155.992,26.0088 154.5,28C 155.578,28.6739 156.245,29.6739 156.5,31C 155.465,32.8377 154.465,34.6711 153.5,36.5C 153.833,37.1667 154.167,37.8333 154.5,38.5C 155.281,37.2713 155.781,35.938 156,34.5C 156.417,35.756 157.25,36.4226 158.5,36.5C 157.488,37.8717 156.488,39.205 155.5,40.5C 153.265,40.7947 151.265,40.4614 149.5,39.5C 149.201,37.396 149.534,35.396 150.5,33.5C 152.534,32.4261 152.867,31.0927 151.5,29.5C 151.5,29.1667 151.5,28.8333 151.5,28.5C 152.479,25.3752 152.813,22.0419 152.5,18.5 Z"/></g>
<g><path style="opacity:1" fill="#743384" d="M 169.5,-0.5 C 171.167,-0.5 172.833,-0.5 174.5,-0.5C 174.5,16.1667 174.5,32.8333 174.5,49.5C 173.167,49.5 171.833,49.5 170.5,49.5C 169.667,32.8477 169.334,16.181 169.5,-0.5 Z"/></g>
<g><path style="opacity:1" fill="#a12b2d" d="M 21.5,40.5 C 22.0256,42.2303 23.0256,43.5637 24.5,44.5C 22.9749,46.0358 20.9749,47.0358 18.5,47.5C 18.8627,48.1835 19.1961,48.8501 19.5,49.5C 12.8333,49.5 6.16667,49.5 -0.5,49.5C -0.5,46.8333 -0.5,44.1667 -0.5,41.5C 3.11723,42.6567 6.78389,42.6567 10.5,41.5C 10.4142,42.4959 10.7476,43.3292 11.5,44C 13.9951,44.1575 16.3284,44.3241 18.5,44.5C 19.5,44.1667 20.1667,43.5 20.5,42.5C 17.6084,39.796 17.9417,39.1294 21.5,40.5 Z"/></g>
<g><path style="opacity:1" fill="#b96222" d="M 36.5,30.5 C 38.1667,30.5 39.8333,30.5 41.5,30.5C 41.8333,32.5 42.1667,34.5 42.5,36.5C 42.719,37.675 42.3857,38.675 41.5,39.5C 40.5713,38.3112 40.238,36.9778 40.5,35.5C 38.901,35.2322 37.5676,35.5655 36.5,36.5C 37.5234,38.5769 37.19,40.5769 35.5,42.5C 32.4509,43.3574 29.4509,43.3574 26.5,42.5C 25.4777,42.8555 24.811,43.5222 24.5,44.5C 23.0256,43.5637 22.0256,42.2303 21.5,40.5C 24.4824,40.0371 27.4824,39.7038 30.5,39.5C 31.1667,39.5 31.5,39.1667 31.5,38.5C 32.4959,38.4142 33.3292,38.7476 34,39.5C 34.7388,36.4535 35.5721,33.4535 36.5,30.5 Z"/></g>
<g><path style="opacity:1" fill="#ac5829" d="M 36.5,36.5 C 37.5,36.5 38.5,36.5 39.5,36.5C 39.5,37.8333 39.5,39.1667 39.5,40.5C 42.3854,40.8064 45.0521,40.4731 47.5,39.5C 48.552,39.3505 49.552,39.5172 50.5,40C 50.1667,40.3333 49.8333,40.6667 49.5,41C 54.3514,41.1745 59.0181,41.6745 63.5,42.5C 54.1667,42.5 44.8333,42.5 35.5,42.5C 37.19,40.5769 37.5234,38.5769 36.5,36.5 Z"/></g>
<g><path style="opacity:1" fill="#af5825" d="M 50.5,31.5 C 51.0431,31.56 51.3764,31.8933 51.5,32.5C 50.8333,33.5 50.1667,34.5 49.5,35.5C 50.1925,36.5178 50.8592,37.5178 51.5,38.5C 53.5706,39.8086 56.0706,40.4752 59,40.5C 62.5343,40.3648 66.0343,40.0315 69.5,39.5C 71.1827,40.8534 72.5161,42.5201 73.5,44.5C 72.0597,43.6371 70.7264,43.6371 69.5,44.5C 68.5,43.8333 67.5,43.1667 66.5,42.5C 65.5832,43.1272 64.5832,43.4606 63.5,43.5C 63.5,43.1667 63.5,42.8333 63.5,42.5C 59.0181,41.6745 54.3514,41.1745 49.5,41C 49.8333,40.6667 50.1667,40.3333 50.5,40C 49.552,39.5172 48.552,39.3505 47.5,39.5C 47.9175,38.7784 48.5842,38.2784 49.5,38C 47.2764,34.6915 45.9431,35.1915 45.5,39.5C 44.1667,36.8333 44.1667,34.1667 45.5,31.5C 47.2882,34.1087 48.9548,34.1087 50.5,31.5 Z"/></g>
<g><path style="opacity:1" fill="#b26d24" d="M 78.5,31.5 C 79.29,32.6085 79.79,33.9419 80,35.5C 80.3333,35.1667 80.6667,34.8333 81,34.5C 81.2784,35.4158 81.7784,36.0825 82.5,36.5C 82.565,38.9176 82.065,41.251 81,43.5C 81.266,40.0992 79.766,38.4326 76.5,38.5C 76.2525,40.8583 76.9192,42.8583 78.5,44.5C 77.0357,43.5946 75.7024,43.5946 74.5,44.5C 74.1667,44.5 73.8333,44.5 73.5,44.5C 72.5161,42.5201 71.1827,40.8534 69.5,39.5C 69.8923,37.8211 70.3923,36.1545 71,34.5C 71.2321,35.7375 71.7321,36.7375 72.5,37.5C 72.4607,39.2239 72.794,39.5573 73.5,38.5C 77.8464,38.1463 79.5131,35.813 78.5,31.5 Z"/></g>
<g><path style="opacity:1" fill="#8f6055" d="M 149.5,39.5 C 151.265,40.4614 153.265,40.7947 155.5,40.5C 156.853,41.5261 157.853,42.8595 158.5,44.5C 157.833,44.5 157.167,44.5 156.5,44.5C 154.862,43.8411 153.195,43.1744 151.5,42.5C 150.304,42.8457 150.304,43.3457 151.5,44C 150.906,44.4643 150.239,44.631 149.5,44.5C 142.596,43.0469 135.596,42.3802 128.5,42.5C 128.167,42.5 127.833,42.5 127.5,42.5C 126.449,41.7777 125.782,40.7777 125.5,39.5C 131.297,40.7617 136.963,40.7617 142.5,39.5C 142.297,37.0607 142.63,34.7273 143.5,32.5C 144.086,32.7093 144.586,33.0426 145,33.5C 145.497,35.8098 145.663,38.1432 145.5,40.5C 146.959,40.5674 148.292,40.2341 149.5,39.5 Z"/></g>
<g><path style="opacity:1" fill="#936352" d="M 112.5,37.5 C 114.048,37.8212 114.715,38.8212 114.5,40.5C 118.042,40.8128 121.375,40.4794 124.5,39.5C 124.5,39.1667 124.5,38.8333 124.5,38.5C 124.833,38.5 125.167,38.5 125.5,38.5C 125.5,38.8333 125.5,39.1667 125.5,39.5C 125.782,40.7777 126.449,41.7777 127.5,42.5C 125.167,42.5 122.833,42.5 120.5,42.5C 117.583,42.3651 114.916,43.0318 112.5,44.5C 110.833,44.5 109.167,44.5 107.5,44.5C 106.761,44.631 106.094,44.4643 105.5,44C 106.696,43.3457 106.696,42.8457 105.5,42.5C 103.833,43.1667 102.167,43.8333 100.5,44.5C 99.8933,44.3764 99.56,44.0431 99.5,43.5C 99.7822,42.2223 100.449,41.2223 101.5,40.5C 101.833,40.5 102.167,40.5 102.5,40.5C 104.415,40.7845 106.081,40.4511 107.5,39.5C 110.163,41.1697 111.83,40.5031 112.5,37.5 Z"/></g>
<g><path style="opacity:1" fill="#713082" d="M 120.5,42.5 C 122.833,42.5 125.167,42.5 127.5,42.5C 127.833,42.5 128.167,42.5 128.5,42.5C 129.369,44.717 129.702,47.0504 129.5,49.5C 127.5,49.5 125.5,49.5 123.5,49.5C 123.66,47.8008 123.494,46.1341 123,44.5C 121.187,45.6091 120.354,44.9424 120.5,42.5 Z"/></g>
<g><path style="opacity:1" fill="#6e2e82" d="M 107.5,44.5 C 109.167,44.5 110.833,44.5 112.5,44.5C 112.611,45.1174 112.944,45.6174 113.5,46C 112.207,46.49 110.873,46.6567 109.5,46.5C 109.5,47.5 109.5,48.5 109.5,49.5C 105.833,49.5 102.167,49.5 98.5,49.5C 98.238,48.0222 98.5713,46.6888 99.5,45.5C 100.197,48.3438 101.364,48.0105 103,44.5C 104.616,45.8009 106.116,45.8009 107.5,44.5 Z"/></g>
<g><path style="opacity:1" fill="#703083" d="M 128.5,42.5 C 135.596,42.3802 142.596,43.0469 149.5,44.5C 149.646,46.9424 148.813,47.6091 147,46.5C 146.517,47.448 146.351,48.448 146.5,49.5C 140.833,49.5 135.167,49.5 129.5,49.5C 129.702,47.0504 129.369,44.717 128.5,42.5 Z"/></g>
<g><path style="opacity:1" fill="#a1292e" d="M 35.5,42.5 C 44.8333,42.5 54.1667,42.5 63.5,42.5C 63.5,42.8333 63.5,43.1667 63.5,43.5C 64.9222,45.5117 66.2555,47.5117 67.5,49.5C 51.5,49.5 35.5,49.5 19.5,49.5C 19.1961,48.8501 18.8627,48.1835 18.5,47.5C 20.9749,47.0358 22.9749,46.0358 24.5,44.5C 24.811,43.5222 25.4777,42.8555 26.5,42.5C 29.4509,43.3574 32.4509,43.3574 35.5,42.5 Z"/></g>
<g><path style="opacity:1" fill="#703180" d="M 92.5,42.5 C 94.4503,44.7528 96.7837,45.0861 99.5,43.5C 99.56,44.0431 99.8933,44.3764 100.5,44.5C 102.167,43.8333 103.833,43.1667 105.5,42.5C 106.696,42.8457 106.696,43.3457 105.5,44C 106.094,44.4643 106.761,44.631 107.5,44.5C 106.116,45.8009 104.616,45.8009 103,44.5C 101.364,48.0105 100.197,48.3438 99.5,45.5C 98.5713,46.6888 98.238,48.0222 98.5,49.5C 94.8333,49.5 91.1667,49.5 87.5,49.5C 87.5,48.5 87.5,47.5 87.5,46.5C 88.1577,45.6016 88.8243,44.6016 89.5,43.5C 90.3267,45.162 91.4933,46.4954 93,47.5C 93.1274,46.2234 92.6274,45.0567 91.5,44C 91.5699,43.2352 91.9033,42.7352 92.5,42.5 Z"/></g>
<g><path style="opacity:1" fill="#a4292d" d="M 73.5,44.5 C 73.8333,44.5 74.1667,44.5 74.5,44.5C 75.3029,45.4232 75.4696,46.4232 75,47.5C 72.8511,46.1602 71.6845,46.8269 71.5,49.5C 70.1667,49.5 68.8333,49.5 67.5,49.5C 66.2555,47.5117 64.9222,45.5117 63.5,43.5C 64.5832,43.4606 65.5832,43.1272 66.5,42.5C 67.5,43.1667 68.5,43.8333 69.5,44.5C 70.7264,43.6371 72.0597,43.6371 73.5,44.5 Z"/></g>
<g><path style="opacity:1" fill="#9d2835" d="M 86.5,-0.5 C 86.8333,-0.5 87.1667,-0.5 87.5,-0.5C 87.5,15.1667 87.5,30.8333 87.5,46.5C 87.5,47.5 87.5,48.5 87.5,49.5C 82.1667,49.5 76.8333,49.5 71.5,49.5C 71.6845,46.8269 72.8511,46.1602 75,47.5C 75.4696,46.4232 75.3029,45.4232 74.5,44.5C 75.7024,43.5946 77.0357,43.5946 78.5,44.5C 81.2385,45.0352 83.0718,44.0352 84,41.5C 84.3333,41.8333 84.6667,42.1667 85,42.5C 86.3158,39.3117 86.8158,35.9783 86.5,32.5C 86.5,28.5 86.5,24.5 86.5,20.5C 86.5,13.5 86.5,6.5 86.5,-0.5 Z"/></g>
<g><path style="opacity:1" fill="#6e2f83" d="M 120.5,42.5 C 120.354,44.9424 121.187,45.6091 123,44.5C 123.494,46.1341 123.66,47.8008 123.5,49.5C 118.833,49.5 114.167,49.5 109.5,49.5C 109.5,48.5 109.5,47.5 109.5,46.5C 110.873,46.6567 112.207,46.49 113.5,46C 112.944,45.6174 112.611,45.1174 112.5,44.5C 114.916,43.0318 117.583,42.3651 120.5,42.5 Z"/></g>
<g><path style="opacity:1" fill="#703082" d="M 156.5,44.5 C 156.5,46.1667 156.5,47.8333 156.5,49.5C 153.167,49.5 149.833,49.5 146.5,49.5C 146.351,48.448 146.517,47.448 147,46.5C 148.813,47.6091 149.646,46.9424 149.5,44.5C 150.239,44.631 150.906,44.4643 151.5,44C 150.304,43.3457 150.304,42.8457 151.5,42.5C 153.195,43.1744 154.862,43.8411 156.5,44.5 Z"/></g>
<g><path style="opacity:1" fill="#6e2f82" d="M 168.5,-0.5 C 168.833,-0.5 169.167,-0.5 169.5,-0.5C 169.334,16.181 169.667,32.8477 170.5,49.5C 165.833,49.5 161.167,49.5 156.5,49.5C 156.5,47.8333 156.5,46.1667 156.5,44.5C 157.167,44.5 157.833,44.5 158.5,44.5C 160.621,44.6747 162.621,44.3414 164.5,43.5C 165.289,43.2172 165.956,42.7172 166.5,42C 165.446,40.6124 165.28,39.1124 166,37.5C 166.654,36.3044 167.154,36.3044 167.5,37.5C 166.674,38.451 166.508,39.451 167,40.5C 167.333,40.1667 167.667,39.8333 168,39.5C 168.499,33.8431 168.666,28.1764 168.5,22.5C 168.5,14.8333 168.5,7.16667 168.5,-0.5 Z"/></g>
</svg>
